<svg width="105" height="90" viewBox="0 0 105 90" fill="none" xmlns="http://www.w3.org/2000/svg">
<path d="M96.4244 51.2092C89.0556 55.6199 82.242 55.2888 77.3508 53.9218C77.2974 51.7005 77.2547 50.0665 77.2227 48.8811C79.444 49.6607 81.6653 50.0451 83.8546 50.0451C87.2934 50.0451 90.6468 49.0947 93.8293 47.1724C94.972 46.5102 96.4244 46.8413 97.1827 47.9306C97.8128 49.0733 97.4496 50.5257 96.4244 51.2092Z" fill="white"/>
<path d="M70.6554 67.8478C69.3632 72.2585 67.035 75.6011 60.8623 80.5137C59.4953 81.5924 58.4914 82.6603 57.8079 83.4933L53.8672 82.1584C54.4225 81.2399 55.2021 80.1506 56.2167 79.1467C62.1758 73.2623 63.2331 66.4488 62.0263 60.2227C64.5574 63.2022 67.4942 65.808 70.6554 67.8478Z" fill="#ACADB4"/>
<path d="M53.9947 44.4694L50.4918 40.6034L49.5093 48.25L44.7569 44.2772L44.4686 49.0296C44.4686 49.0296 44.1482 54.081 43.3579 57.1353C42.9628 58.7159 42.2686 60.745 41.7346 62.2294C37.4201 60.9265 31.6211 57.9897 29.1115 54.1664C27.9153 52.3402 27.5416 50.4927 27.9687 48.5063L28.7163 44.9927L25.1814 45.6442C22.9494 46.05 21.0911 46.0073 19.4358 45.4947L21.1766 39.5675L18.6349 39.0335C17.5028 38.7986 16.0077 38.617 14.5553 38.5209C14.8757 37.9442 15.2067 37.3569 15.5164 36.8229L17.8446 32.8394L13.2417 33.2239C11.8 33.3414 10.0485 33.1598 8.5 32.9142C10.401 30.8637 13.2844 28.055 16.8834 25.4919C19.5853 23.5376 24.2309 21.9143 30.361 20.0881C36.256 18.326 38.0716 14.0435 38.5842 12.1532L42.6317 8.11637C43.155 7.97754 44.2764 7.82802 45.5472 8.49015L46.9356 9.20568L48.153 8.23385C48.9433 7.60375 49.6161 6.86687 50.2035 5.98047C51.218 6.48241 52.1685 7.08046 52.6277 7.49696L53.7704 8.53287L55.1908 7.92414C55.6821 7.71055 57.6257 7.0591 59.3665 6.65328C60.2529 8.03093 61.449 10.295 61.449 12.228V14.0221L63.1577 14.5348C64.1189 14.8231 65.1548 14.7056 66.148 14.5988C66.1694 16.2542 66.1907 18.2939 66.2548 19.1376L66.3189 19.9706L66.8849 20.59C67.4829 21.2308 68.8713 22.79 70.1528 24.2424C69.7043 24.3065 69.2451 24.3706 68.7858 24.4347L64.6529 25.022L69.0955 36.1821L69.2771 36.5559C69.2771 36.5559 72.1178 41.2229 72.3421 45.8364C72.3421 46.0286 72.4703 50.9412 72.5237 53.5684C69.8217 50.7597 67.6111 47.4383 66.3402 44.1384L66.2655 43.9675C66.18 43.7859 65.9344 43.0811 65.7422 42.4403L65.0373 40.1549L62.9869 41.383C60.3597 42.9636 58.3092 43.7966 55.6607 44.3626L54.1763 44.6723C54.1122 44.5976 54.0588 44.5335 53.9947 44.4694Z" fill="#ACADB4"/>
<path d="M103.912 60.6276L103.848 60.5315C102.011 57.7761 98.3369 56.9111 95.4535 58.5771C90.3059 61.6848 84.8167 61.7382 79.2313 58.7907L78.6653 58.4596C78.3449 58.2674 78.0138 58.0752 77.7041 57.8723C79.5623 58.2994 81.6235 58.5771 83.8448 58.5771C88.2128 58.5771 93.1894 57.4985 98.4224 54.3694C101.178 52.5325 102.043 48.8588 100.387 45.9966L100.323 45.9005C98.4864 43.1452 94.8127 42.2802 91.9292 43.9462C87.2302 46.7869 82.2322 47.0646 77.074 44.8112C76.6041 39.7598 74.0838 35.2317 73.4857 34.2278L71.3712 28.9201C72.7168 28.7065 74.0731 28.4289 75.4294 27.9483L78.7934 26.7735L76.4439 24.093C76.2731 23.9007 72.7381 19.8959 71.0187 17.9843C70.9653 16.393 70.9547 13.4348 70.9547 12.228V10.4552L69.2566 9.93194C68.1566 9.5902 67.0032 9.67564 65.9566 9.78243C65.0382 5.83101 62.3149 2.50968 62.2829 2.46697L61.4179 1.43105L60.0936 1.62329C58.3208 1.87959 56.1101 2.52036 54.647 3.01162C53.2374 2.06115 51.3578 1.12135 49.8306 0.640771L47.7588 0L46.9044 1.98639C46.6374 2.61648 46.3598 3.11842 46.05 3.53492C42.985 2.64852 40.5821 3.71647 40.2831 3.86598L39.9093 4.04753L34.7084 9.24846L34.1424 9.83583L34.0249 10.6048C34.0036 10.7543 33.4162 14.161 28.9842 15.4746C22.192 17.5037 17.3328 19.2338 14.0756 21.594C6.80285 26.7735 2.30677 32.7541 2.11454 33.0104L0 35.8404L3.41744 36.7589C3.58832 36.8016 6.36499 37.5492 9.46205 37.8909C9.03486 38.7453 8.6504 39.5676 8.47953 40.1443L7.4543 43.4549L10.9145 43.252C11.897 43.1879 13.5203 43.252 15.0474 43.3802L13.7018 47.9724L15.3465 48.9122C17.6212 50.2151 20.1522 50.8238 23.0037 50.717C23.1211 52.8209 23.826 54.8606 25.0968 56.7936C29.0055 62.7635 37.8055 66.4372 42.7608 67.4518L44.7365 67.8469L45.4734 65.9673C45.5481 65.7858 47.2462 61.4072 48.0258 58.3208C48.3675 56.9965 48.6238 55.416 48.816 53.9422L53.1519 57.5839L53.814 52.4471C54.7004 53.9315 55.6082 55.6936 56.3131 57.6266C58.9509 64.7605 57.7761 70.8479 52.8315 75.7284C49.6384 78.9002 48.2821 82.5847 48.2287 82.7448L47.3957 85.0516L57.947 88.6186L59.8266 89.238L60.8091 87.5293C60.8091 87.5293 61.7382 85.938 63.8528 84.272C70.5275 78.9643 73.3682 74.9061 74.9274 70.2819C78.9857 72.2362 83.1613 73.2187 87.3157 73.2187C92.2923 73.2187 97.2476 71.809 101.947 69.0003C104.702 67.1634 105.567 63.4897 103.912 60.6276ZM83.8555 50.0442C87.2943 50.0442 90.6477 49.0937 93.8302 47.1714C94.9729 46.5093 96.4253 46.8403 97.1835 47.9296C97.8136 49.0723 97.4505 50.5248 96.4253 51.2082C89.0564 55.6189 82.2429 55.2878 77.3517 53.9208C77.2983 51.6995 77.2556 50.0655 77.2235 48.8801C79.4449 49.6597 81.6662 50.0442 83.8555 50.0442ZM62.0266 60.2218C64.5576 63.2013 67.4945 65.8071 70.6556 67.8469C69.3634 72.2576 67.0353 75.6002 60.8625 80.5128C59.4956 81.5915 58.4917 82.6594 57.8082 83.4924L53.8674 82.1575C54.4228 81.239 55.2024 80.1497 56.2169 79.1458C62.1761 73.2614 63.2334 66.4479 62.0266 60.2218ZM54.1772 44.6724C54.1131 44.5976 54.0597 44.5336 53.9956 44.4695L50.4927 40.6035L49.5102 48.25L44.7578 44.2772L44.4695 49.0296C44.4695 49.0296 44.1491 54.081 43.3588 57.1354C42.9637 58.7159 42.2695 60.7451 41.7355 62.2295C37.421 60.9266 31.622 57.9897 29.1123 54.1665C27.9162 52.3403 27.5425 50.4927 27.9696 48.5063L28.7172 44.9928L25.1823 45.6442C22.9503 46.05 21.092 46.0073 19.4367 45.4947L21.1775 39.5676L18.6357 39.0336C17.5037 38.7987 16.0086 38.6171 14.5562 38.521C14.8766 37.9443 15.2076 37.3569 15.5173 36.8229L17.8455 32.8395L13.2426 33.224C11.8009 33.3414 10.0494 33.1599 8.50089 32.9142C10.4018 30.8638 13.2853 28.0551 16.8843 25.492C19.5862 23.5376 24.2318 21.9144 30.3618 20.0882C36.2569 18.326 38.0725 14.0436 38.5851 12.1533L42.6326 8.11643C43.1559 7.97759 44.2772 7.82808 45.5481 8.49021L46.9364 9.20574L48.1539 8.2339C48.9442 7.60381 49.617 6.86692 50.2044 5.98053C51.2189 6.48246 52.1694 7.08051 52.6286 7.49702L53.7713 8.53293L55.1917 7.9242C55.683 7.71061 57.6266 7.05916 59.3674 6.65333C60.2538 8.03099 61.4499 10.295 61.4499 12.228V14.0222L63.1586 14.5348C64.1198 14.8232 65.1557 14.7057 66.1489 14.5989C66.1702 16.2542 66.1916 18.294 66.2557 19.1377L66.3198 19.9707L66.8858 20.5901C67.4838 21.2309 68.8722 22.7901 70.1537 24.2425C69.7052 24.3066 69.2459 24.3706 68.7867 24.4347L64.6538 25.0221L69.0964 36.1822L69.278 36.556C69.278 36.556 72.1187 41.2229 72.343 45.8365C72.343 46.0287 72.4712 50.9413 72.5246 53.5684C69.8226 50.7597 67.612 47.4384 66.3411 44.1384L66.2664 43.9675C66.1809 43.786 65.9353 43.0811 65.7431 42.4404L65.0382 40.155L62.9877 41.3831C60.3606 42.9637 58.3101 43.7967 55.6616 44.3627L54.1772 44.6724ZM99.9389 65.8392C90.0496 71.777 81.1109 69.2246 75.9206 66.5867C75.3973 66.3304 74.9168 66.0741 74.4789 65.8178C74.2226 65.679 73.9663 65.5295 73.7207 65.3586C72.9731 64.9314 72.2469 64.4508 71.5314 63.9275C65.8819 59.912 61.1509 53.9636 58.5344 47.4811C60.0402 47.0326 61.4499 46.4665 62.9344 45.6976C64.8033 50.45 68.2421 55.0742 72.3964 58.5771C73.1012 59.1752 73.8274 59.7305 74.5643 60.2538C75.2905 60.7664 76.0167 61.2363 76.7643 61.6742H76.775L77.3944 62.0479C84.2079 65.6469 91.1283 65.5615 97.3544 61.8023C98.4864 61.1402 99.9495 61.4713 100.708 62.5606C101.327 63.7033 100.975 65.1557 99.9389 65.8392Z" fill="#686972"/>
<path d="M99.9377 65.8408C90.0484 71.7786 81.1097 69.2262 75.9194 66.5883C75.3961 66.332 74.9156 66.0757 74.4777 65.8194C74.2214 65.6806 73.9651 65.5311 73.7195 65.3602C72.9719 64.933 72.2457 64.4524 71.5302 63.9291C65.8807 59.9136 61.1497 53.9652 58.5332 47.4827C60.039 47.0342 61.4487 46.4681 62.9332 45.6992C64.8021 50.4516 68.2409 55.0758 72.3952 58.5787C73.1001 59.1768 73.8263 59.7321 74.5631 60.2554C75.2894 60.768 76.0156 61.2379 76.7631 61.6758H76.7738L77.3932 62.0495C84.2067 65.6485 91.1271 65.5631 97.3532 61.8039C98.4852 61.1418 99.9483 61.4729 100.707 62.5622C101.326 63.7049 100.974 65.1573 99.9377 65.8408Z" fill="white"/>
<path d="M39.0649 39.729H34.1843L29.1543 27.6718L29.3892 26.999C29.464 26.7747 31.3329 21.5951 35.7756 21.168H35.9571H39.0542V24.9058H36.0639C34.6329 25.098 33.6397 26.732 33.1805 27.6504L36.662 36.0125H39.0435V39.7503L39.0649 39.729Z" fill="#686972"/>
<path d="M58.6717 30.139C57.0591 30.5875 56.4824 31.773 56.4824 32.2001C56.4824 32.6273 57.764 34.5496 58.9387 34.6564C59.7931 34.6564 61.6086 34.6564 61.929 34.4428C62.3562 34.1225 62.5697 30.4914 62.4629 30.2778C62.2494 30.0642 59.6649 29.8613 58.6717 30.139Z" fill="#686972"/>
</svg>
