<svg width="105" height="105" viewBox="0 0 105 105" fill="none" xmlns="http://www.w3.org/2000/svg">
<path d="M96.5489 59.0901C89.1801 63.5007 82.3665 63.1696 77.4753 61.8027C77.4219 59.5813 77.3792 57.9474 77.3472 56.7619C79.5685 57.5415 81.7898 57.926 83.9791 57.926C87.4179 57.926 90.7713 56.9755 93.9538 55.0532C95.0965 54.3911 96.5489 54.7222 97.3072 55.8115C97.9373 56.9542 97.5742 58.4066 96.5489 59.0901Z" fill="white"/>
<path d="M70.7799 75.7287C69.4877 80.1393 67.1595 83.482 60.9868 88.3946C59.6198 89.4732 58.6159 90.5412 57.9324 91.3742L53.9917 90.0392C54.547 89.1208 55.3266 88.0315 56.3412 87.0276C62.3004 81.1432 63.3576 74.3297 62.1508 68.1035C64.6819 71.0831 67.6188 73.6889 70.7799 75.7287Z" fill="white"/>
<path d="M54.1202 52.3503L50.6173 48.4843L49.6348 56.1308L44.8824 52.1581L44.5941 56.9104C44.5941 56.9104 44.2737 61.9618 43.4834 65.0162C43.0883 66.5967 42.3941 68.6259 41.8601 70.1103C37.5456 68.8074 31.7466 65.8705 29.2369 62.0473C28.0408 60.2211 27.6671 58.3735 28.0942 56.3871L28.8418 52.8736L25.3069 53.525C23.0749 53.9309 21.2166 53.8881 19.5613 53.3755L21.3021 47.4484L18.7603 46.9144C17.6283 46.6795 16.1332 46.4979 14.6808 46.4018C15.0012 45.8251 15.3322 45.2377 15.6419 44.7038L17.9701 40.7203L13.3672 41.1048C11.9255 41.2222 10.174 41.0407 8.62549 40.7951C10.5264 38.7446 13.4099 35.9359 17.0089 33.3728C19.7108 31.4184 24.3564 29.7952 30.4864 27.969C36.3815 26.2068 38.1971 21.9244 38.7097 20.0341L42.7572 15.9972C43.2805 15.8584 44.4018 15.7089 45.6727 16.371L47.061 17.0865L48.2785 16.1147C49.0688 15.4846 49.7416 14.7477 50.329 13.8613C51.3435 14.3633 52.294 14.9613 52.7532 15.3778L53.8959 16.4137L55.3163 15.805C55.8076 15.5914 57.7512 14.94 59.492 14.5341C60.3784 15.9118 61.5745 18.1758 61.5745 20.1088V21.903L63.2832 22.4156C64.2444 22.704 65.2803 22.5865 66.2735 22.4797C66.2948 24.135 66.3162 26.1748 66.3803 27.0185L66.4444 27.8515L67.0104 28.4709C67.6084 29.1117 68.9968 30.6709 70.2783 32.1233C69.8298 32.1874 69.3705 32.2514 68.9113 32.3155L64.7784 32.9029L69.221 44.063L69.4026 44.4368C69.4026 44.4368 72.2433 49.1037 72.4676 53.7173C72.4676 53.9095 72.5958 58.8221 72.6492 61.4492C69.9472 58.6405 67.7366 55.3192 66.4657 52.0192L66.391 51.8483C66.3055 51.6668 66.0599 50.9619 65.8677 50.3212L65.1628 48.0358L63.1123 49.2639C60.4852 50.8445 58.4347 51.6775 55.7862 52.2435L54.3018 52.5532C54.2377 52.4784 54.1843 52.4144 54.1202 52.3503Z" fill="white"/>
<path d="M104.036 68.5084L103.972 68.4123C102.135 65.657 98.4614 64.792 95.578 66.458C90.4304 69.5657 84.9412 69.6191 79.3558 66.6716L78.7898 66.3405C78.4694 66.1483 78.1383 65.956 77.8286 65.7531C79.6869 66.1803 81.748 66.458 83.9693 66.458C88.3373 66.458 93.3139 65.3793 98.5469 62.2502C101.302 60.4134 102.167 56.7396 100.512 53.8775L100.448 53.7814C98.611 51.0261 94.9372 50.161 92.0537 51.827C87.3547 54.6678 82.3567 54.9455 77.1985 52.6921C76.7286 47.6407 74.2083 43.1126 73.6102 42.1087L71.4957 36.801C72.8413 36.5874 74.1976 36.3097 75.5539 35.8291L78.9179 34.6544L76.5684 31.9738C76.3976 31.7816 72.8627 27.7768 71.1433 25.8652C71.0899 24.2739 71.0792 21.3157 71.0792 20.1089V18.3361L69.3811 17.8128C68.2811 17.4711 67.1278 17.5565 66.0812 17.6633C65.1627 13.7119 62.4395 10.3905 62.4074 10.3478L61.5424 9.31191L60.2181 9.50414C58.4453 9.76045 56.2347 10.4012 54.7716 10.8925C53.3619 9.942 51.4823 9.00221 49.9551 8.52163L47.8833 7.88086L47.0289 9.86725C46.7619 10.4973 46.4843 10.9993 46.1746 11.4158C43.1095 10.5294 40.7066 11.5973 40.4076 11.7468L40.0338 11.9284L34.8329 17.1293L34.2669 17.7167L34.1494 18.4856C34.1281 18.6351 33.5407 22.0419 29.1087 23.3555C22.3165 25.3846 17.4574 27.1147 14.2001 29.4748C6.92736 34.6544 2.43129 40.6349 2.23905 40.8912L0.124512 43.7213L3.54195 44.6397C3.71283 44.6824 6.4895 45.43 9.58656 45.7718C9.15938 46.6261 8.77491 47.4484 8.60404 48.0251L7.57881 51.3358L11.039 51.1329C12.0215 51.0688 13.6448 51.1329 15.1719 51.261L13.8263 55.8532L15.471 56.793C17.7457 58.0959 20.2767 58.7046 23.1282 58.5979C23.2457 60.7017 23.9505 62.7415 25.2214 64.6745C29.1301 70.6443 37.93 74.3181 42.8853 75.3326L44.861 75.7278L45.5979 73.8482C45.6726 73.6666 47.3707 69.288 48.1503 66.2017C48.492 64.8774 48.7483 63.2968 48.9405 61.8231L53.2764 65.4648L53.9386 60.3279C54.825 61.8124 55.7327 63.5745 56.4376 65.5075C59.0754 72.6414 57.9007 78.7287 52.956 83.6093C49.7629 86.7811 48.4066 90.4655 48.3532 90.6257L47.5202 92.9325L58.0715 96.4994L59.9511 97.1188L60.9336 95.4101C60.9336 95.4101 61.8628 93.8189 63.9773 92.1529C70.652 86.8452 73.4927 82.7869 75.052 78.1627C79.1102 80.1171 83.2859 81.0996 87.4402 81.0996C92.4168 81.0996 97.3721 79.6899 102.071 76.8812C104.826 75.0443 105.691 71.3705 104.036 68.5084ZM83.98 57.925C87.4188 57.925 90.7722 56.9746 93.9547 55.0523C95.0974 54.3901 96.5498 54.7212 97.308 55.8105C97.9381 56.9532 97.575 58.4056 96.5498 59.0891C89.1809 63.4997 82.3674 63.1687 77.4762 61.8017C77.4228 59.5804 77.3801 57.9464 77.348 56.761C79.5694 57.5406 81.7907 57.925 83.98 57.925ZM62.1511 68.1026C64.6821 71.0822 67.619 73.688 70.7802 75.7278C69.4879 80.1384 67.1598 83.4811 60.987 88.3937C59.6201 89.4723 58.6162 90.5403 57.9327 91.3733L53.992 90.0383C54.5473 89.1199 55.3269 88.0306 56.3414 87.0267C62.3006 81.1423 63.3579 74.3288 62.1511 68.1026ZM54.3017 52.5533C54.2376 52.4785 54.1842 52.4144 54.1201 52.3503L50.6172 48.4844L49.6347 56.1309L44.8823 52.1581L44.594 56.9105C44.594 56.9105 44.2736 61.9619 43.4833 65.0162C43.0882 66.5968 42.394 68.6259 41.86 70.1104C37.5455 68.8075 31.7465 65.8706 29.2369 62.0473C28.0408 60.2211 27.667 58.3736 28.0941 56.3872L28.8417 52.8736L25.3068 53.5251C23.0748 53.9309 21.2165 53.8882 19.5612 53.3756L21.302 47.4484L18.7603 46.9145C17.6282 46.6795 16.1331 46.498 14.6807 46.4019C15.0011 45.8252 15.3321 45.2378 15.6418 44.7038L17.97 40.7204L13.3671 41.1048C11.9254 41.2223 10.1739 41.0407 8.6254 40.7951C10.5264 38.7446 13.4098 35.9359 17.0088 33.3728C19.7107 31.4185 24.3563 29.7952 30.4864 27.969C36.3814 26.2069 38.197 21.9244 38.7096 20.0341L42.7571 15.9973C43.2804 15.8585 44.4018 15.7089 45.6726 16.3711L47.061 17.0866L48.2784 16.1148C49.0687 15.4847 49.7415 14.7478 50.3289 13.8614C51.3434 14.3633 52.2939 14.9614 52.7531 15.3779L53.8958 16.4138L55.3162 15.8051C55.8075 15.5915 57.7511 14.94 59.4919 14.5342C60.3783 15.9119 61.5744 18.1759 61.5744 20.1089V21.9031L63.2831 22.4157C64.2443 22.704 65.2802 22.5865 66.2734 22.4797C66.2948 24.1351 66.3161 26.1749 66.3802 27.0185L66.4443 27.8515L67.0103 28.471C67.6083 29.1117 68.9967 30.6709 70.2782 32.1233C69.8297 32.1874 69.3705 32.2515 68.9112 32.3156L64.7783 32.903L69.2209 44.063L69.4025 44.4368C69.4025 44.4368 72.2432 49.1038 72.4675 53.7173C72.4675 53.9095 72.5957 58.8221 72.6491 61.4493C69.9471 58.6406 67.7365 55.3192 66.4656 52.0193L66.3909 51.8484C66.3054 51.6668 66.0598 50.962 65.8676 50.3212L65.1627 48.0358L63.1123 49.264C60.4851 50.8445 58.4346 51.6775 55.7861 52.2435L54.3017 52.5533ZM100.063 73.72C90.1741 79.6578 81.2354 77.1054 76.0451 74.4676C75.5218 74.2113 75.0413 73.955 74.6034 73.6987C74.3471 73.5598 74.0908 73.4103 73.8452 73.2395C73.0976 72.8123 72.3714 72.3317 71.6559 71.8084C66.0064 67.7929 61.2754 61.8444 58.6589 55.362C60.1647 54.9134 61.5744 54.3474 63.0589 53.5785C64.9278 58.3309 68.3666 62.9551 72.5209 66.458C73.2258 67.056 73.952 67.6114 74.6888 68.1347C75.4151 68.6473 76.1413 69.1172 76.8888 69.555H76.8995L77.5189 69.9288C84.3324 73.5278 91.2528 73.4424 97.4789 69.6832C98.611 69.0211 100.074 69.3521 100.832 70.4414C101.452 71.5841 101.099 73.0365 100.063 73.72Z" fill="#83848D"/>
<path d="M104.036 68.5084L103.972 68.4123C102.135 65.657 98.4614 64.792 95.578 66.458C90.4304 69.5657 84.9412 69.6191 79.3558 66.6716L78.7898 66.3405C78.4694 66.1483 78.1383 65.956 77.8286 65.7531C79.6869 66.1803 81.748 66.458 83.9693 66.458C88.3373 66.458 93.3139 65.3793 98.5469 62.2502C101.302 60.4134 102.167 56.7396 100.512 53.8775L100.448 53.7814C98.611 51.0261 94.9372 50.161 92.0537 51.827C87.3547 54.6678 82.3567 54.9455 77.1985 52.6921C76.7286 47.6407 74.2083 43.1126 73.6102 42.1087L71.4957 36.801C72.8413 36.5874 74.1976 36.3097 75.5539 35.8291L78.9179 34.6544L76.5684 31.9738C76.3976 31.7816 72.8627 27.7768 71.1433 25.8652C71.0899 24.2739 71.0792 21.3157 71.0792 20.1089V18.3361L69.3811 17.8128C68.2811 17.4711 67.1278 17.5565 66.0812 17.6633C65.1627 13.7119 62.4395 10.3905 62.4074 10.3478L61.5424 9.31191L60.2181 9.50414C58.4453 9.76045 56.2347 10.4012 54.7716 10.8925C53.3619 9.942 51.4823 9.00221 49.9551 8.52163L47.8833 7.88086L47.0289 9.86725C46.7619 10.4973 46.4843 10.9993 46.1746 11.4158C43.1095 10.5294 40.7066 11.5973 40.4076 11.7468L40.0338 11.9284L34.8329 17.1293L34.2669 17.7167L34.1494 18.4856C34.1281 18.6351 33.5407 22.0419 29.1087 23.3555C22.3165 25.3846 17.4574 27.1147 14.2001 29.4748C6.92736 34.6544 2.43129 40.6349 2.23905 40.8912L0.124512 43.7213L3.54195 44.6397C3.71283 44.6824 6.4895 45.43 9.58656 45.7718C9.15938 46.6261 8.77491 47.4484 8.60404 48.0251L7.57881 51.3358L11.039 51.1329C12.0215 51.0688 13.6448 51.1329 15.1719 51.261L13.8263 55.8532L15.471 56.793C17.7457 58.0959 20.2767 58.7046 23.1282 58.5979C23.2457 60.7017 23.9505 62.7415 25.2214 64.6745C29.1301 70.6443 37.93 74.3181 42.8853 75.3326L44.861 75.7278L45.5979 73.8482C45.6726 73.6666 47.3707 69.288 48.1503 66.2017C48.492 64.8774 48.7483 63.2968 48.9405 61.8231L53.2764 65.4648L53.9386 60.3279C54.825 61.8124 55.7327 63.5745 56.4376 65.5075C59.0754 72.6414 57.9007 78.7287 52.956 83.6093C49.7629 86.7811 48.4066 90.4655 48.3532 90.6257L47.5202 92.9325L58.0715 96.4994L59.9511 97.1188L60.9336 95.4101C60.9336 95.4101 61.8628 93.8189 63.9773 92.1529C70.652 86.8452 73.4927 82.7869 75.052 78.1627C79.1102 80.1171 83.2859 81.0996 87.4402 81.0996C92.4168 81.0996 97.3721 79.6899 102.071 76.8812C104.826 75.0443 105.691 71.3705 104.036 68.5084ZM83.98 57.925C87.4188 57.925 90.7722 56.9746 93.9547 55.0523C95.0974 54.3901 96.5498 54.7212 97.308 55.8105C97.9381 56.9532 97.575 58.4056 96.5498 59.0891C89.1809 63.4997 82.3674 63.1687 77.4762 61.8017C77.4228 59.5804 77.3801 57.9464 77.348 56.761C79.5694 57.5406 81.7907 57.925 83.98 57.925ZM62.1511 68.1026C64.6821 71.0822 67.619 73.688 70.7802 75.7278C69.4879 80.1384 67.1598 83.4811 60.987 88.3937C59.6201 89.4723 58.6162 90.5403 57.9327 91.3733L53.992 90.0383C54.5473 89.1199 55.3269 88.0306 56.3414 87.0267C62.3006 81.1423 63.3579 74.3288 62.1511 68.1026ZM54.3017 52.5533C54.2376 52.4785 54.1842 52.4144 54.1201 52.3503L50.6172 48.4844L49.6347 56.1309L44.8823 52.1581L44.594 56.9105C44.594 56.9105 44.2736 61.9619 43.4833 65.0162C43.0882 66.5968 42.394 68.6259 41.86 70.1104C37.5455 68.8075 31.7465 65.8706 29.2369 62.0473C28.0408 60.2211 27.667 58.3736 28.0941 56.3872L28.8417 52.8736L25.3068 53.5251C23.0748 53.9309 21.2165 53.8882 19.5612 53.3756L21.302 47.4484L18.7603 46.9145C17.6282 46.6795 16.1331 46.498 14.6807 46.4019C15.0011 45.8252 15.3321 45.2378 15.6418 44.7038L17.97 40.7204L13.3671 41.1048C11.9254 41.2223 10.1739 41.0407 8.6254 40.7951C10.5264 38.7446 13.4098 35.9359 17.0088 33.3728C19.7107 31.4185 24.3563 29.7952 30.4864 27.969C36.3814 26.2069 38.197 21.9244 38.7096 20.0341L42.7571 15.9973C43.2804 15.8585 44.4018 15.7089 45.6726 16.3711L47.061 17.0866L48.2784 16.1148C49.0687 15.4847 49.7415 14.7478 50.3289 13.8614C51.3434 14.3633 52.2939 14.9614 52.7531 15.3779L53.8958 16.4138L55.3162 15.8051C55.8075 15.5915 57.7511 14.94 59.4919 14.5342C60.3783 15.9119 61.5744 18.1759 61.5744 20.1089V21.9031L63.2831 22.4157C64.2443 22.704 65.2802 22.5865 66.2734 22.4797C66.2948 24.1351 66.3161 26.1749 66.3802 27.0185L66.4443 27.8515L67.0103 28.471C67.6083 29.1117 68.9967 30.6709 70.2782 32.1233C69.8297 32.1874 69.3705 32.2515 68.9112 32.3156L64.7783 32.903L69.2209 44.063L69.4025 44.4368C69.4025 44.4368 72.2432 49.1038 72.4675 53.7173C72.4675 53.9095 72.5957 58.8221 72.6491 61.4493C69.9471 58.6406 67.7365 55.3192 66.4656 52.0193L66.3909 51.8484C66.3054 51.6668 66.0598 50.962 65.8676 50.3212L65.1627 48.0358L63.1123 49.264C60.4851 50.8445 58.4346 51.6775 55.7861 52.2435L54.3017 52.5533ZM100.063 73.72C90.1741 79.6578 81.2354 77.1054 76.0451 74.4676C75.5218 74.2113 75.0413 73.955 74.6034 73.6987C74.3471 73.5598 74.0908 73.4103 73.8452 73.2395C73.0976 72.8123 72.3714 72.3317 71.6559 71.8084C66.0064 67.7929 61.2754 61.8444 58.6589 55.362C60.1647 54.9134 61.5744 54.3474 63.0589 53.5785C64.9278 58.3309 68.3666 62.9551 72.5209 66.458C73.2258 67.056 73.952 67.6114 74.6888 68.1347C75.4151 68.6473 76.1413 69.1172 76.8888 69.555H76.8995L77.5189 69.9288C84.3324 73.5278 91.2528 73.4424 97.4789 69.6832C98.611 69.0211 100.074 69.3521 100.832 70.4414C101.452 71.5841 101.099 73.0365 100.063 73.72Z" fill="#83848D"/>
<path d="M100.062 73.7216C90.1729 79.6594 81.2342 77.107 76.0439 74.4692C75.5207 74.2129 75.0401 73.9566 74.6022 73.7003C74.3459 73.5614 74.0896 73.4119 73.844 73.2411C73.0964 72.8139 72.3702 72.3333 71.6547 71.81C66.0052 67.7945 61.2742 61.846 58.6577 55.3636C60.1635 54.915 61.5732 54.349 63.0577 53.5801C64.9266 58.3325 68.3654 62.9567 72.5197 66.4596C73.2246 67.0576 73.9508 67.613 74.6877 68.1362C75.4139 68.6489 76.1401 69.1188 76.8876 69.5566H76.8983L77.5177 69.9304C84.3313 73.5294 91.2516 73.444 97.4777 69.6848C98.6098 69.0226 100.073 69.3537 100.831 70.443C101.451 71.5857 101.098 73.0381 100.062 73.7216Z" fill="white"/>
<path d="M39.1894 47.6098H34.3089L29.2788 35.5526L29.5138 34.8798C29.5885 34.6556 31.4574 29.476 35.9001 29.0488H36.0817H39.1787V32.7867H36.1885C34.7574 32.9789 33.7642 34.6129 33.305 35.5313L36.7865 43.8933H39.168V47.6312L39.1894 47.6098Z" fill="#83848D"/>
<path d="M58.7972 38.0199C57.1846 38.4684 56.6079 39.6538 56.6079 40.081C56.6079 40.5082 57.8895 42.4305 59.0642 42.5373C59.9186 42.5373 61.7341 42.5373 62.0545 42.3237C62.4816 42.0033 62.6952 38.3723 62.5884 38.1587C62.3748 37.9451 59.7904 37.7422 58.7972 38.0199Z" fill="#83848D"/>
</svg>
