<svg width="522" height="110" viewBox="0 0 522 110" fill="none" xmlns="http://www.w3.org/2000/svg">
<path d="M96.4244 61.2092C89.0555 65.6199 82.242 65.2888 77.3508 63.9218C77.2974 61.7005 77.2546 60.0665 77.2226 58.8811C79.4439 59.6607 81.6653 60.0451 83.8546 60.0451C87.2934 60.0451 90.6467 59.0947 93.8292 57.1724C94.9719 56.5102 96.4244 56.8413 97.1826 57.9306C97.8127 59.0733 97.4496 60.5257 96.4244 61.2092Z" fill="white"/>
<path d="M70.6553 77.8478C69.3631 82.2585 67.035 85.6011 60.8622 90.5137C59.4953 91.5924 58.4914 92.6603 57.8079 93.4933L53.8672 92.1584C54.4225 91.2399 55.2021 90.1506 56.2166 89.1467C62.1758 83.2623 63.2331 76.4488 62.0263 70.2227C64.5573 73.2022 67.4942 75.808 70.6553 77.8478Z" fill="#9F6C45"/>
<path d="M53.9957 54.4694L50.4928 50.6034L49.5103 58.25L44.7579 54.2772L44.4696 59.0296C44.4696 59.0296 44.1492 64.081 43.3589 67.1353C42.9638 68.7159 42.2696 70.745 41.7356 72.2294C37.4211 70.9265 31.6221 67.9897 29.1124 64.1664C27.9163 62.3402 27.5425 60.4927 27.9697 58.5063L28.7173 54.9927L25.1824 55.6442C22.9504 56.05 21.0921 56.0073 19.4368 55.4947L21.1776 49.5675L18.6358 49.0336C17.5038 48.7986 16.0087 48.6171 14.5563 48.5209C14.8766 47.9442 15.2077 47.3569 15.5174 46.8229L17.8455 42.8394L13.2427 43.2239C11.8009 43.3414 10.0495 43.1598 8.50098 42.9142C10.4019 40.8637 13.2854 38.055 16.8844 35.4919C19.5863 33.5376 24.2319 31.9143 30.3619 30.0881C36.257 28.326 38.0725 24.0435 38.5852 22.1532L42.6327 18.1164C43.156 17.9775 44.2773 17.828 45.5482 18.4902L46.9365 19.2057L48.154 18.2338C48.9443 17.6038 49.6171 16.8669 50.2045 15.9805C51.219 16.4824 52.1695 17.0805 52.6287 17.497L53.7714 18.5329L55.1918 17.9241C55.6831 17.7105 57.6267 17.0591 59.3675 16.6533C60.2539 18.0309 61.45 20.295 61.45 22.228V24.0221L63.1587 24.5348C64.1199 24.8231 65.1558 24.7056 66.149 24.5988C66.1703 26.2542 66.1917 28.2939 66.2558 29.1376L66.3198 29.9706L66.8859 30.59C67.4839 31.2308 68.8722 32.79 70.1538 34.2424C69.7052 34.3065 69.246 34.3706 68.7868 34.4347L64.6538 35.022L69.0965 46.1821L69.2781 46.5559C69.2781 46.5559 72.1188 51.2229 72.3431 55.8364C72.3431 56.0286 72.4712 60.9412 72.5246 63.5684C69.8227 60.7597 67.6121 57.4383 66.3412 54.1384L66.2664 53.9675C66.181 53.7859 65.9354 53.0811 65.7431 52.4403L65.0383 50.1549L62.9878 51.383C60.3607 52.9636 58.3102 53.7966 55.6617 54.3626L54.1772 54.6723C54.1132 54.5976 54.0598 54.5335 53.9957 54.4694Z" fill="#9F6C45"/>
<path d="M103.912 70.6276L103.848 70.5315C102.011 67.7761 98.3369 66.9111 95.4535 68.5771C90.3059 71.6848 84.8167 71.7382 79.2313 68.7907L78.6653 68.4596C78.3449 68.2674 78.0138 68.0752 77.7041 67.8723C79.5623 68.2994 81.6235 68.5771 83.8448 68.5771C88.2128 68.5771 93.1894 67.4985 98.4224 64.3694C101.178 62.5325 102.043 58.8588 100.387 55.9966L100.323 55.9005C98.4864 53.1452 94.8127 52.2802 91.9292 53.9462C87.2302 56.7869 82.2322 57.0646 77.074 54.8112C76.6041 49.7598 74.0838 45.2317 73.4857 44.2278L71.3712 38.9201C72.7168 38.7065 74.0731 38.4289 75.4294 37.9483L78.7934 36.7735L76.4439 34.093C76.2731 33.9007 72.7381 29.8959 71.0187 27.9843C70.9653 26.393 70.9547 23.4348 70.9547 22.228V20.4552L69.2566 19.9319C68.1566 19.5902 67.0032 19.6756 65.9566 19.7824C65.0382 15.831 62.3149 12.5097 62.2829 12.467L61.4179 11.4311L60.0936 11.6233C58.3208 11.8796 56.1101 12.5204 54.647 13.0116C53.2374 12.0611 51.3578 11.1213 49.8306 10.6408L47.7588 10L46.9044 11.9864C46.6374 12.6165 46.3597 13.1184 46.05 13.5349C42.985 12.6485 40.5821 13.7165 40.2831 13.866L39.9093 14.0475L34.7084 19.2485L34.1424 19.8358L34.0249 20.6048C34.0036 20.7543 33.4162 24.161 28.9842 25.4746C22.192 27.5037 17.3328 29.2338 14.0756 31.594C6.80285 36.7735 2.30677 42.7541 2.11454 43.0104L0 45.8404L3.41744 46.7589C3.58832 46.8016 6.36499 47.5492 9.46204 47.8909C9.03486 48.7453 8.6504 49.5676 8.47953 50.1443L7.4543 53.4549L10.9145 53.252C11.897 53.1879 13.5203 53.252 15.0474 53.3802L13.7018 57.9724L15.3465 58.9122C17.6212 60.2151 20.1522 60.8238 23.0037 60.717C23.1211 62.8209 23.826 64.8606 25.0968 66.7936C29.0055 72.7635 37.8055 76.4372 42.7608 77.4518L44.7365 77.8469L45.4734 75.9673C45.5481 75.7858 47.2462 71.4072 48.0258 68.3208C48.3675 66.9965 48.6238 65.416 48.816 63.9422L53.1519 67.5839L53.814 62.4471C54.7004 63.9315 55.6082 65.6936 56.3131 67.6266C58.9509 74.7605 57.7761 80.8479 52.8315 85.7284C49.6384 88.9002 48.2821 92.5846 48.2287 92.7448L47.3957 95.0516L57.947 98.6186L59.8266 99.238L60.8091 97.5293C60.8091 97.5293 61.7382 95.938 63.8528 94.272C70.5275 88.9643 73.3682 84.9061 74.9274 80.2819C78.9857 82.2362 83.1613 83.2187 87.3157 83.2187C92.2923 83.2187 97.2476 81.809 101.947 79.0003C104.702 77.1634 105.567 73.4897 103.912 70.6276ZM83.8555 60.0442C87.2943 60.0442 90.6477 59.0937 93.8302 57.1714C94.9729 56.5093 96.4253 56.8403 97.1835 57.9296C97.8136 59.0723 97.4505 60.5248 96.4253 61.2082C89.0564 65.6189 82.2429 65.2878 77.3517 63.9208C77.2983 61.6995 77.2556 60.0655 77.2235 58.8801C79.4449 59.6597 81.6662 60.0442 83.8555 60.0442ZM62.0266 70.2218C64.5576 73.2013 67.4945 75.8071 70.6556 77.8469C69.3634 82.2576 67.0353 85.6003 60.8625 90.5128C59.4955 91.5915 58.4917 92.6594 57.8082 93.4924L53.8674 92.1575C54.4228 91.239 55.2024 90.1497 56.2169 89.1458C62.1761 83.2614 63.2334 76.4479 62.0266 70.2218ZM54.1772 54.6724C54.1131 54.5976 54.0597 54.5336 53.9956 54.4695L50.4927 50.6035L49.5102 58.25L44.7578 54.2772L44.4695 59.0296C44.4695 59.0296 44.1491 64.081 43.3588 67.1354C42.9637 68.7159 42.2695 70.7451 41.7355 72.2295C37.421 70.9266 31.622 67.9897 29.1123 64.1665C27.9162 62.3403 27.5425 60.4927 27.9696 58.5063L28.7172 54.9928L25.1823 55.6442C22.9503 56.05 21.092 56.0073 19.4367 55.4947L21.1775 49.5676L18.6357 49.0336C17.5037 48.7987 16.0086 48.6171 14.5562 48.521C14.8766 47.9443 15.2076 47.3569 15.5173 46.8229L17.8455 42.8395L13.2426 43.224C11.8009 43.3414 10.0494 43.1599 8.50089 42.9142C10.4018 40.8638 13.2853 38.0551 16.8843 35.492C19.5862 33.5376 24.2318 31.9144 30.3618 30.0882C36.2569 28.326 38.0725 24.0436 38.5851 22.1533L42.6326 18.1164C43.1559 17.9776 44.2772 17.8281 45.5481 18.4902L46.9364 19.2057L48.1539 18.2339C48.9442 17.6038 49.617 16.8669 50.2044 15.9805C51.2189 16.4825 52.1694 17.0805 52.6286 17.497L53.7713 18.5329L55.1917 17.9242C55.683 17.7106 57.6266 17.0592 59.3674 16.6533C60.2538 18.031 61.4499 20.295 61.4499 22.228V24.0222L63.1586 24.5348C64.1198 24.8232 65.1557 24.7057 66.1489 24.5989C66.1702 26.2542 66.1916 28.294 66.2557 29.1377L66.3198 29.9707L66.8858 30.5901C67.4838 31.2309 68.8722 32.7901 70.1537 34.2425C69.7052 34.3066 69.2459 34.3706 68.7867 34.4347L64.6538 35.0221L69.0964 46.1822L69.278 46.556C69.278 46.556 72.1187 51.2229 72.343 55.8365C72.343 56.0287 72.4712 60.9413 72.5246 63.5684C69.8226 60.7597 67.612 57.4384 66.3411 54.1384L66.2664 53.9675C66.1809 53.786 65.9353 53.0811 65.7431 52.4404L65.0382 50.155L62.9877 51.3831C60.3606 52.9637 58.3101 53.7967 55.6616 54.3627L54.1772 54.6724ZM99.9389 75.8392C90.0496 81.777 81.1109 79.2246 75.9206 76.5867C75.3973 76.3304 74.9168 76.0741 74.4789 75.8178C74.2226 75.679 73.9663 75.5295 73.7207 75.3586C72.9731 74.9314 72.2469 74.4508 71.5314 73.9275C65.8819 69.912 61.1509 63.9636 58.5344 57.4811C60.0402 57.0326 61.4499 56.4665 62.9343 55.6976C64.8033 60.45 68.2421 65.0742 72.3964 68.5771C73.1012 69.1752 73.8275 69.7305 74.5643 70.2538C75.2905 70.7664 76.0167 71.2363 76.7643 71.6742H76.775L77.3944 72.048C84.2079 75.6469 91.1283 75.5615 97.3544 71.8023C98.4864 71.1402 99.9495 71.4713 100.708 72.5606C101.327 73.7033 100.975 75.1557 99.9389 75.8392Z" fill="#311A17"/>
<path d="M99.9376 75.8408C90.0484 81.7786 81.1096 79.2262 75.9194 76.5883C75.3961 76.332 74.9155 76.0757 74.4777 75.8194C74.2214 75.6806 73.9651 75.5311 73.7194 75.3602C72.9719 74.933 72.2457 74.4524 71.5301 73.9291C65.8807 69.9136 61.1497 63.9652 58.5332 57.4827C60.039 57.0342 61.4487 56.4681 62.9331 55.6992C64.802 60.4516 68.2408 65.0758 72.3952 68.5787C73.1 69.1768 73.8262 69.7321 74.5631 70.2554C75.2893 70.768 76.0155 71.2379 76.7631 71.6758H76.7738L77.3932 72.0495C84.2067 75.6485 91.127 75.5631 97.3532 71.8039C98.4852 71.1418 99.9483 71.4729 100.707 72.5622C101.326 73.7049 100.974 75.1573 99.9376 75.8408Z" fill="white"/>
<path d="M39.0649 49.729H34.1843L29.1543 37.6718L29.3892 36.999C29.464 36.7747 31.3329 31.5951 35.7756 31.168H35.9571H39.0542V34.9058H36.0639C34.6329 35.098 33.6397 36.732 33.1805 37.6504L36.662 46.0125H39.0435V49.7503L39.0649 49.729Z" fill="#311A17"/>
<path d="M58.6727 40.139C57.0601 40.5875 56.4834 41.773 56.4834 42.2001C56.4834 42.6273 57.7649 44.5496 58.9397 44.6564C59.794 44.6564 61.6095 44.6564 61.9299 44.4428C62.3571 44.1225 62.5707 40.4914 62.4639 40.2778C62.2503 40.0642 59.6659 39.8613 58.6727 40.139Z" fill="#311A17"/>
<path d="M483.819 79.7592V32.8242H493.584V53.1102H511.854V32.8242H521.619V79.7592H511.854V61.6152H493.584V79.7592H483.819Z" fill="white"/>
<path d="M456.24 79.7592V41.3292H444.333V32.8242H477.723V41.3292H466.005V79.7592H456.24Z" fill="white"/>
<path d="M419.597 80.5152C415.901 80.5152 412.604 79.7382 409.706 78.1842C406.808 76.6302 404.519 74.5092 402.839 71.8212C401.201 69.0912 400.382 66.0042 400.382 62.5602V32.8242H410.147V61.9302C410.147 63.7782 410.546 65.4582 411.344 66.9702C412.184 68.4402 413.318 69.5952 414.746 70.4352C416.174 71.2752 417.791 71.6952 419.597 71.6952C421.445 71.6952 423.062 71.2752 424.448 70.4352C425.876 69.5952 426.989 68.4402 427.787 66.9702C428.627 65.4582 429.047 63.7782 429.047 61.9302V32.8242H438.812V62.5602C438.812 66.0042 437.972 69.0912 436.292 71.8212C434.654 74.5092 432.386 76.6302 429.488 78.1842C426.59 79.7382 423.293 80.5152 419.597 80.5152Z" fill="white"/>
<path d="M367.879 80.5154C364.351 80.5154 361.075 79.9064 358.051 78.6884C355.027 77.4704 352.381 75.7694 350.113 73.5854C347.887 71.3594 346.144 68.7764 344.884 65.8364C343.624 62.8964 342.994 59.7044 342.994 56.2604C342.994 52.8164 343.603 49.6244 344.821 46.6844C346.081 43.7444 347.824 41.1824 350.05 38.9984C352.318 36.8144 354.964 35.1134 357.988 33.8954C361.012 32.6774 364.309 32.0684 367.879 32.0684C371.449 32.0684 374.746 32.6774 377.77 33.8954C380.794 35.1134 383.419 36.8144 385.645 38.9984C387.913 41.1824 389.656 43.7444 390.874 46.6844C392.134 49.6244 392.764 52.8164 392.764 56.2604C392.764 59.7044 392.134 62.8964 390.874 65.8364C389.614 68.7764 387.85 71.3594 385.582 73.5854C383.356 75.7694 380.731 77.4704 377.707 78.6884C374.683 79.9064 371.407 80.5154 367.879 80.5154ZM367.879 71.6954C370.021 71.6954 371.995 71.3174 373.801 70.5614C375.649 69.8054 377.266 68.7554 378.652 67.4114C380.038 66.0254 381.109 64.3874 381.865 62.4974C382.621 60.6074 382.999 58.5284 382.999 56.2604C382.999 53.9924 382.621 51.9344 381.865 50.0864C381.109 48.1964 380.038 46.5584 378.652 45.1724C377.266 43.7864 375.649 42.7364 373.801 42.0224C371.995 41.2664 370.021 40.8884 367.879 40.8884C365.737 40.8884 363.742 41.2664 361.894 42.0224C360.088 42.7364 358.492 43.7864 357.106 45.1724C355.72 46.5584 354.649 48.1964 353.893 50.0864C353.137 51.9344 352.759 53.9924 352.759 56.2604C352.759 58.5284 353.137 60.6074 353.893 62.4974C354.649 64.3874 355.72 66.0254 357.106 67.4114C358.492 68.7554 360.088 69.8054 361.894 70.5614C363.742 71.3174 365.737 71.6954 367.879 71.6954Z" fill="white"/>
<path d="M285.657 79.7592V32.8242H295.107L312.684 56.1342H308.274L325.347 32.8242H334.797V79.7592H325.032V43.5972L328.938 44.4792L310.857 67.7892H309.597L292.146 44.4792L295.422 43.5972V79.7592H285.657Z" fill="white"/>
<path d="M226.934 79.7592V32.8242H236.384L253.961 56.1342H249.551L266.624 32.8242H276.074V79.7592H266.309V43.5972L270.215 44.4792L252.134 67.7892H250.874L233.423 44.4792L236.699 43.5972V79.7592H226.934Z" fill="white"/>
<path d="M176.066 79.7592L191.942 32.8242H204.92L220.796 79.7592H210.149L206.999 70.1832H189.8L186.65 79.7592H176.066ZM192.509 61.6782H204.29L197.108 39.5022H199.754L192.509 61.6782Z" fill="white"/>
<path d="M120.808 79.7592V32.8242H130.258L147.835 56.1342H143.425L160.498 32.8242H169.948V79.7592H160.183V43.5972L164.089 44.4792L146.008 67.7892H144.748L127.297 44.4792L130.573 43.5972V79.7592H120.808Z" fill="white"/>
</svg>
