<svg width="522" height="110" viewBox="0 0 522 110" fill="none" xmlns="http://www.w3.org/2000/svg">
<path d="M61.0709 40.2776C63.4203 46.151 68.3325 52.1311 74.2059 55.5484L74.7398 55.8687C80.3996 58.8588 86.7001 59.3927 92.8939 55.6552C94.9229 54.4805 97.4858 55.1212 98.7672 57.0434C99.9419 59.0724 99.3012 61.6353 97.379 62.9168C87.768 68.6833 77.9435 67.5087 70.0411 62.9168C62.2456 58.5384 56.1586 50.9565 53.1686 43.3745L52.5278 41.8794L54.0229 41.2387L59.0419 39.3165L60.537 38.6758L61.1777 40.1708L61.0709 40.2776Z" fill="white"/>
<path d="M63.3931 40.5975L63.2867 40.7028C65.6413 45.8427 70.0227 50.9521 75.145 53.9325L75.1565 53.9388L75.1669 53.9461L75.6477 54.2339C80.827 56.9589 86.4057 57.3867 91.9277 54.0545L91.9569 54.0378C94.7694 52.4096 98.2796 53.2283 100.146 55.7565L100.322 56.0067L100.355 56.0558L100.384 56.1069C102.065 59.0101 101.138 62.6564 98.4153 64.4716L98.3788 64.4956L98.3402 64.5185C88.0529 70.691 77.4929 69.4081 69.1017 64.5321C60.9271 59.9322 54.5873 52.0303 51.4503 44.1109L50.0737 40.8978L53.2868 39.5202L53.3201 39.5067L53.3546 39.4931L58.33 37.5878L61.518 36.2217L63.3931 40.5975ZM54.9814 42.872C57.8542 50.03 63.6317 57.173 70.9559 61.2867L70.9684 61.294L70.9799 61.3003C78.3794 65.6 87.4478 66.6696 96.3661 61.343C97.4522 60.6008 97.8011 59.1684 97.1754 58.0299C96.4173 56.9488 94.9669 56.6136 93.8299 57.2717C86.986 61.388 79.9882 60.7551 73.8665 57.521L73.8216 57.497L73.7779 57.4709L73.2439 57.1508C67.0689 53.5503 61.9409 47.3394 59.4177 41.1721L54.9814 42.872Z" fill="#311A17"/>
<path d="M50.9255 93.778C50.9255 93.778 51.011 91.9199 53.702 88.5453C69.2718 72.3989 52.207 56.1884 52.207 56.1884L52.4206 63.0229C52.4206 63.0229 49.0034 60.7803 46.8676 59.2853C46.8676 59.2853 46.5472 64.5179 45.6929 67.8284C44.9454 70.8185 43.2368 75.1968 43.2368 75.1968C37.4702 74.0221 23.4809 68.1487 25.6167 58.1106C22.7334 58.6446 19.5297 58.6446 16.5397 56.936L18.1415 51.4897C16.1018 51.0519 12.5992 50.8704 10.7624 50.9558C11.243 49.5355 13.4428 45.7232 13.4428 45.7232C9.59841 46.0329 4.04541 44.5485 4.04541 44.5485C4.04541 44.5485 8.42374 38.6751 15.4718 33.6561C18.5686 31.4135 23.5877 29.7049 29.6746 27.8895C35.7616 26.0741 36.4023 21.055 36.4023 21.055L41.3146 16.1428C41.3146 16.1428 43.7921 14.9254 46.6326 16.4418C47.1346 16.0787 48.8111 13.8468 49.1101 13.0459C50.7867 13.6332 53.1361 14.8399 54.2894 15.7797C55.0689 15.4807 59.3191 14.2099 60.4297 14.1138C60.9209 14.7972 63.847 18.6736 63.847 22.3365C64.9042 22.7103 67.1467 21.92 68.5456 22.3365C68.5456 22.3365 68.4389 27.6759 68.6524 29.0642C69.9339 30.4524 74.6326 35.7918 74.6326 35.7918C72.4968 36.5394 70.2543 36.7529 68.0117 37.0733L71.3221 45.4028C71.3221 45.4028 74.4724 49.8666 74.7394 55.8681C74.7607 56.402 75.2626 66.5256 74.8462 69.2166C73.2443 79.4683 72.956 84.167 62.4587 92.4965C59.8851 94.5362 58.8279 96.4477 58.8279 96.4477L50.9255 93.778Z" fill="#9F6C45"/>
<path d="M34.019 20.7414L34.1223 19.9363L34.7031 19.3565L39.615 14.4436L39.8976 14.162L40.2553 13.9868L41.3148 16.1435C40.2937 14.0653 40.2567 13.989 40.2563 13.9858L40.2584 13.9848C40.2598 13.9841 40.2621 13.9834 40.2636 13.9827C40.2666 13.9812 40.2698 13.979 40.273 13.9775C40.2796 13.9743 40.2871 13.9707 40.2949 13.967C40.3107 13.9596 40.3293 13.9515 40.3502 13.942C40.3925 13.9228 40.4451 13.899 40.5077 13.8732C40.6324 13.8216 40.7977 13.7585 40.9988 13.6928C41.3997 13.5617 41.9555 13.4173 42.6267 13.3382C43.544 13.2301 44.6866 13.2452 45.9316 13.5885C45.9584 13.5527 45.987 13.5176 46.0139 13.4811C46.2479 13.1641 46.4673 12.8477 46.6365 12.58C46.8338 12.2679 46.8771 12.1563 46.8587 12.2056L47.6825 10L49.9048 10.779C51.3375 11.281 53.2369 12.1909 54.6863 13.1192C55.2553 12.9427 55.9275 12.7442 56.5822 12.5592C57.2481 12.371 57.9395 12.1847 58.5459 12.0377C59.0997 11.9036 59.7397 11.7625 60.2229 11.7207L61.5838 11.6029L62.3805 12.7114C62.6141 13.0364 63.5675 14.3078 64.4506 15.9923C65.0146 17.068 65.6105 18.4278 65.9554 19.9155C66.7238 19.8269 68.0549 19.6842 69.231 20.0344L70.9841 20.5558L70.9476 22.385V22.3985C70.9474 22.408 70.9469 22.4224 70.9465 22.4413C70.9458 22.4794 70.9446 22.5363 70.9434 22.6092C70.941 22.7551 70.9384 22.966 70.9351 23.2234C70.9285 23.739 70.9215 24.439 70.9215 25.1798C70.9215 26.301 70.9394 27.361 70.9747 28.0518C71.7443 28.905 72.8905 30.1913 73.9218 31.3567C74.5905 32.1122 75.2189 32.8245 75.6801 33.3475C75.9106 33.6089 76.0995 33.8231 76.2307 33.9721C76.2963 34.0466 76.3481 34.1046 76.383 34.1442C76.4003 34.1639 76.4136 34.1789 76.4226 34.189C76.4271 34.1941 76.4307 34.1979 76.433 34.2005C76.4341 34.2017 76.4345 34.203 76.4351 34.2036L76.4361 34.2047L78.792 36.8817L75.4267 38.0601C74.0852 38.5296 72.6969 38.8121 71.372 39.0237L73.4609 44.2808C73.4651 44.2873 73.4701 44.2938 73.4744 44.3006C73.5795 44.4628 73.7231 44.6917 73.8926 44.9816C74.2312 45.5606 74.6766 46.3883 75.1294 47.4177C75.9737 49.3368 76.8699 52.0177 77.1025 55.1327L77.1401 55.7616V55.772C77.1496 56.0109 77.2824 58.7151 77.3591 61.6714C77.4328 64.5162 77.4695 67.9751 77.2204 69.5846V69.5878C76.4426 74.5657 75.9287 78.7012 74.1763 82.5692C72.3744 86.5464 69.3606 90.0869 63.9521 94.3785L63.9511 94.3796C62.825 95.272 62.0431 96.1265 61.5546 96.7375C61.3105 97.0427 61.1406 97.2866 61.0384 97.4414C60.9874 97.5186 60.9529 97.5736 60.9351 97.603C60.9331 97.6063 60.9304 97.6087 60.9289 97.6114L59.959 99.3665L48.4417 95.4756L48.5251 93.6684L50.9258 93.7778C48.5256 93.6675 48.5251 93.6658 48.5251 93.6642V93.661C48.5252 93.659 48.5261 93.6569 48.5262 93.6548C48.5264 93.6504 48.5259 93.6459 48.5262 93.6412C48.5267 93.6318 48.5276 93.6213 48.5283 93.611C48.5296 93.5905 48.5314 93.5683 48.5335 93.5443C48.5378 93.4957 48.5439 93.4391 48.5523 93.3764C48.5689 93.2508 48.5949 93.0975 48.6346 92.9175C48.7142 92.5567 48.8495 92.0917 49.0768 91.5284C49.5319 90.4009 50.3517 88.8931 51.8237 87.0473L51.8936 86.9597L51.9718 86.8783C55.5554 83.1619 57.1563 79.5632 57.6626 76.309C58.1728 73.0297 57.5991 69.9189 56.5489 67.1704C56.0562 65.8811 55.4623 64.6857 54.8417 63.6091L54.9669 67.5677L51.102 65.0315L51.0989 65.0305C51.0972 65.0293 51.0949 65.0274 51.0916 65.0253C51.0849 65.0209 51.0753 65.0139 51.0624 65.0054C51.0365 64.9884 50.9979 64.9637 50.9487 64.9314C50.8502 64.8666 50.7075 64.7715 50.5295 64.654C50.1736 64.419 49.6763 64.0904 49.1123 63.7144C49.0336 63.662 48.9536 63.608 48.8724 63.5538C48.6808 65.1184 48.4075 66.925 48.0194 68.4291C47.6162 70.0369 46.9728 71.959 46.4488 73.4369C46.1824 74.1884 45.9406 74.844 45.7647 75.312C45.6768 75.5459 45.605 75.7335 45.5551 75.8637C45.5301 75.9288 45.5102 75.98 45.4967 76.0149C45.4901 76.032 45.4847 76.0452 45.481 76.0545C45.4792 76.0592 45.4779 76.0634 45.4769 76.066C45.4764 76.0673 45.4761 76.0683 45.4758 76.0691L45.4748 76.0702L44.7396 77.9556L42.7571 77.551C39.6005 76.908 34.3279 75.0283 30.0509 71.9217C26.551 69.3795 23.2757 65.6507 23.0096 60.8153C20.5633 60.8989 17.9123 60.488 15.3477 59.0226L13.699 58.0798L15.0474 53.4881C13.5301 53.3566 11.9041 53.3088 10.8739 53.3567L7.35839 53.5194L8.48572 50.1865C8.68582 49.5951 9.07161 48.7845 9.4733 47.9944C8.54383 47.8911 7.65689 47.7558 6.88181 47.6179C5.89828 47.443 5.04219 47.2577 4.4311 47.1163C4.12515 47.0455 3.87852 46.9853 3.70631 46.9421C3.62029 46.9206 3.55252 46.9034 3.50504 46.891C3.4813 46.8849 3.46217 46.88 3.44873 46.8764C3.44227 46.8747 3.43705 46.8733 3.43308 46.8723C3.43112 46.8717 3.4292 46.8716 3.42787 46.8712L3.42578 46.8702L4.04524 44.5488C2.11885 43.1127 2.1188 43.1121 2.11908 43.1117L2.12221 43.1086C2.12333 43.1071 2.12484 43.1054 2.12638 43.1034C2.12989 43.0987 2.13429 43.0921 2.13994 43.0846C2.15124 43.0696 2.16711 43.049 2.18687 43.0231C2.22645 42.9713 2.28297 42.8981 2.35581 42.8051C2.50176 42.6188 2.71404 42.3529 2.98883 42.0209C3.53807 41.3572 4.33912 40.4265 5.36654 39.3366C7.41687 37.1616 10.3914 34.3237 14.0775 31.6987C17.5647 29.1798 22.9927 27.3757 28.9883 25.5876C31.4118 24.8647 32.6365 23.5599 33.2807 22.5237C33.6146 21.9865 33.8066 21.4954 33.9126 21.1544C33.9653 20.985 33.9954 20.8563 34.0107 20.7831C34.0183 20.7467 34.0222 20.7246 34.0232 20.7185C34.0237 20.7155 34.0239 20.7165 34.0232 20.7216C34.0228 20.7243 34.0218 20.7282 34.0211 20.7331C34.0208 20.7355 34.0194 20.7384 34.019 20.7414ZM60.9299 97.6124L60.9289 97.6135L60.9278 97.6156C60.9272 97.6167 60.9263 97.6177 60.9257 97.6187C60.9245 97.6209 60.9234 97.6236 60.9226 97.6249C60.9219 97.6262 60.9208 97.6266 60.9205 97.627C60.9213 97.6257 60.9236 97.6201 60.9289 97.6114L60.9299 97.6124ZM49.8809 16.3354C49.5957 16.7217 49.2946 17.1052 49.0184 17.4293C48.8023 17.683 48.4321 18.1059 48.0413 18.3887L46.8253 19.2689L45.5009 18.5618C44.6002 18.0811 43.7844 18.0401 43.1888 18.1103C42.967 18.1365 42.779 18.1808 42.634 18.2208L38.5919 22.2619C38.5647 22.3616 38.5362 22.4686 38.5012 22.581C38.297 23.2377 37.9484 24.1155 37.3614 25.0599C36.1634 26.987 34.0237 29.0993 30.3607 30.1918C24.1914 32.0317 19.5878 33.6418 16.8807 35.6021L16.8734 35.6084L16.8651 35.6136C13.5033 38.0076 10.7651 40.6167 8.86428 42.6331C8.7415 42.7633 8.62314 42.892 8.50762 43.0168C10.127 43.2714 11.8715 43.4396 13.2495 43.3286L17.8109 42.9616L15.524 46.9244L15.5229 46.9265C15.5221 46.9279 15.5204 46.9299 15.5187 46.9328C15.515 46.9392 15.5097 46.9497 15.5021 46.963C15.4868 46.9896 15.4637 47.0294 15.4343 47.0808C15.3752 47.1842 15.2893 47.3348 15.185 47.5199C15.0171 47.8182 14.8038 48.2063 14.5718 48.6316C16.0236 48.7282 17.5095 48.8967 18.6452 49.1405L21.1773 49.6838L19.4388 55.5916C21.2684 56.1627 23.2117 56.1122 25.1787 55.748L28.715 55.0931L27.9663 58.6107C27.1955 62.2332 29.2104 65.3721 32.875 68.0339C35.7039 70.0887 39.1305 71.5389 41.7393 72.3305C41.7972 72.1699 41.8586 72.0032 41.9197 71.8309C42.4349 70.3777 43.0173 68.6242 43.362 67.2455L43.364 67.2372L43.3661 67.2278C43.748 65.748 44.0276 63.7546 44.2119 62.0563C44.3023 61.2227 44.367 60.4883 44.409 59.9632C44.4299 59.7012 44.445 59.4922 44.4549 59.35C44.4598 59.279 44.464 59.2242 44.4663 59.1884C44.4675 59.1706 44.4679 59.1571 44.4684 59.1488C44.4687 59.1449 44.4694 59.1421 44.4695 59.1404V59.1383L44.7312 54.8574L48.2457 57.3175C48.736 57.6607 49.2985 58.0451 49.8725 58.4344L49.6222 50.4201L53.8614 54.4465L52.2064 56.1891C53.8613 54.4471 53.8626 54.4477 53.8635 54.4486L53.8708 54.4559C53.8751 54.46 53.8812 54.4655 53.8875 54.4716C53.9 54.4836 53.9163 54.4997 53.9365 54.5195C53.9774 54.5596 54.0343 54.6154 54.1044 54.6864C54.2446 54.8283 54.4402 55.0313 54.679 55.2912C55.1566 55.811 55.8094 56.5626 56.5374 57.5136C57.9861 59.406 59.7704 62.1397 61.0373 65.4549C62.3069 68.7772 63.0799 72.7463 62.4108 77.0473C61.7427 81.3415 59.6628 85.7891 55.5237 90.1153C54.8387 90.9814 54.3652 91.7106 54.0377 92.2939L57.9108 93.6026C58.5935 92.7666 59.5938 91.7017 60.9664 90.6138C66.0541 86.5766 68.4325 83.6029 69.7994 80.5857C71.2155 77.4599 71.6476 74.1209 72.4712 68.8494C72.6386 67.7679 72.633 64.8188 72.5546 61.7955C72.48 58.9172 72.353 56.3191 72.3388 55.9754L72.3096 55.4873C72.1284 53.069 71.4256 50.9319 70.7307 49.3522C70.3627 48.5158 70.0045 47.8526 69.7441 47.4072C69.6143 47.1851 69.5099 47.0182 69.4417 46.9129C69.4076 46.8603 69.3819 46.8234 69.3677 46.8024C69.3639 46.7969 69.3615 46.7921 69.3593 46.7888L69.3583 46.7878L69.1945 46.5552L64.6519 35.1266L67.672 34.6948C68.5584 34.5682 69.3782 34.4635 70.1529 34.3496C68.8586 32.8877 67.4803 31.3375 66.8867 30.6944L66.3893 30.1553L66.2777 29.4295C66.1363 28.5103 66.116 26.6101 66.116 25.1798C66.116 25.0285 66.1176 24.879 66.1181 24.7324C65.7582 24.7735 65.3291 24.8208 64.9251 24.8367C64.4651 24.8549 63.7526 24.8519 63.0459 24.6021L61.444 24.0358V22.337C61.444 21.0819 60.921 19.6094 60.1947 18.224C59.9122 17.685 59.6201 17.2 59.3562 16.789C58.9037 16.9036 58.3976 17.0394 57.8889 17.1832C56.5822 17.5525 55.4235 17.9186 55.1494 18.0237L53.85 18.5222L52.7716 17.6431C52.2128 17.1877 51.159 16.5772 50.078 16.058C50.0115 16.1507 49.9476 16.2449 49.8809 16.3354ZM4.04524 44.5488L3.42578 46.8702L0 45.9546L2.11908 43.1117L4.04524 44.5488Z" fill="#311A17"/>
<path d="M64.5943 54.9072C66.8262 60.8233 71.856 66.7607 77.7293 70.178L78.2633 70.4983C83.9231 73.4884 90.2236 74.0223 96.4173 70.2847C98.4463 69.1101 101.009 69.7508 102.291 71.673C103.465 73.702 102.825 76.2649 100.902 77.5464C91.2915 83.3129 81.4669 82.1383 73.5646 77.5464C65.769 73.168 59.6821 65.5861 56.692 58.0041L56.0513 56.2955C59.0627 55.6547 61.3266 54.747 63.9536 53.0918C63.9536 53.0918 64.4235 54.4587 64.5943 54.9072Z" fill="white"/>
<path d="M65.7207 52.4836L65.7217 52.4846C65.7219 52.4852 65.7213 52.4866 65.7217 52.4878C65.7226 52.4903 65.7242 52.4943 65.7259 52.4992C65.7293 52.5091 65.7351 52.5234 65.7415 52.542C65.7545 52.5797 65.7726 52.6347 65.7958 52.7016C65.8421 52.8355 65.9054 53.019 65.9741 53.2157L66.3412 54.2419L66.3433 54.2471C68.4179 59.7464 73.1533 65.3532 78.6688 68.5624L78.6802 68.5686L78.6907 68.5749L79.1725 68.8648C84.3514 71.5891 89.93 72.0162 95.4515 68.6844L95.4807 68.6677C98.2932 67.0394 101.803 67.8581 103.67 70.3863L103.845 70.6366L103.879 70.6856L103.908 70.7367C105.589 73.6399 104.662 77.2863 101.939 79.1015L101.903 79.1254L101.864 79.1484C91.5766 85.3208 81.0166 84.0379 72.6254 79.1619C64.4332 74.5522 58.0831 66.6262 54.9532 58.6896L54.9427 58.6604L53.5391 54.9187L55.6623 54.4671C58.4623 53.8714 60.52 53.0461 62.9571 51.5106L64.9542 50.2529L65.7207 52.4836ZM62.9488 55.8301C61.5123 56.5834 60.0982 57.1479 58.5437 57.5978C61.4295 64.7236 67.1882 71.8213 74.4796 75.9166L74.4921 75.9239L74.5036 75.9301C81.9033 80.23 90.9724 81.2999 99.8909 75.9729C100.976 75.231 101.324 73.7998 100.7 72.6618C99.9424 71.5791 98.4913 71.243 97.3536 71.9016C90.5098 76.0178 83.5119 75.3849 77.3902 72.1508L77.3454 72.1268L77.3016 72.1008L76.7676 71.7806C70.6327 68.2038 65.3817 62.065 62.9488 55.8301Z" fill="#311A17"/>
<path d="M39.0727 31.2215V34.9591C38.0716 34.9591 36.8815 34.9087 36.1381 34.9821L36.137 34.981C35.3179 35.0673 34.5428 35.6806 33.8657 36.6287C33.5845 37.0224 33.3633 37.4169 33.2035 37.7362L36.6866 46.0968H39.0727V49.8344H34.1952L29.1655 37.7623L29.4116 37.0792L31.1699 37.7143C29.4121 37.0799 29.4125 37.0788 29.4127 37.0782C29.413 37.0773 29.4134 37.075 29.4137 37.074C29.4144 37.0721 29.416 37.0702 29.4169 37.0678C29.4187 37.0627 29.4204 37.0562 29.4231 37.049C29.4284 37.0347 29.4354 37.0159 29.444 36.9937C29.4611 36.9494 29.4848 36.8894 29.5149 36.8164C29.5752 36.6705 29.6631 36.4704 29.7777 36.2324C30.0051 35.7603 30.3505 35.1191 30.8237 34.4565C31.7253 33.1939 33.3399 31.5105 35.7647 31.2632L35.7699 31.2622C36.7565 31.1648 38.3652 31.2215 39.0727 31.2215ZM32.925 38.3547L32.9271 38.3505L32.9261 38.3484C32.925 38.3512 32.9254 38.3537 32.925 38.3547Z" fill="#311A17"/>
<path d="M58.4007 40.4908C56.9057 41.2384 56.4785 41.8791 56.4785 42.3062C56.4785 42.8402 57.76 44.6556 58.9346 44.7624C59.789 44.7624 61.6044 44.8692 61.9247 44.5488C62.3519 44.2284 62.5655 40.5976 62.4587 40.384C62.2451 40.1705 59.789 39.8501 58.4007 40.4908Z" fill="#311A17"/>
<path d="M483.819 79.8247V32.8896H493.584V53.1757H511.854V32.8896H521.619V79.8247H511.854V61.6807H493.584V79.8247H483.819Z" fill="#311A17"/>
<path d="M456.24 79.8247V41.3947H444.333V32.8896H477.723V41.3947H466.005V79.8247H456.24Z" fill="#311A17"/>
<path d="M419.597 80.5807C415.901 80.5807 412.604 79.8037 409.706 78.2497C406.808 76.6957 404.519 74.5747 402.839 71.8867C401.201 69.1567 400.382 66.0697 400.382 62.6257V32.8896H410.147V61.9957C410.147 63.8437 410.546 65.5237 411.344 67.0357C412.184 68.5057 413.318 69.6607 414.746 70.5007C416.174 71.3407 417.791 71.7607 419.597 71.7607C421.445 71.7607 423.062 71.3407 424.448 70.5007C425.876 69.6607 426.989 68.5057 427.787 67.0357C428.627 65.5237 429.047 63.8437 429.047 61.9957V32.8896H438.812V62.6257C438.812 66.0697 437.972 69.1567 436.292 71.8867C434.654 74.5747 432.386 76.6957 429.488 78.2497C426.59 79.8037 423.293 80.5807 419.597 80.5807Z" fill="#311A17"/>
<path d="M367.878 80.5798C364.35 80.5798 361.074 79.9708 358.05 78.7528C355.026 77.5348 352.38 75.8338 350.112 73.6498C347.886 71.4238 346.143 68.8408 344.883 65.9008C343.623 62.9608 342.993 59.7688 342.993 56.3248C342.993 52.8808 343.602 49.6888 344.82 46.7488C346.08 43.8088 347.823 41.2468 350.049 39.0628C352.317 36.8788 354.963 35.1778 357.987 33.9598C361.011 32.7418 364.308 32.1328 367.878 32.1328C371.448 32.1328 374.745 32.7418 377.769 33.9598C380.793 35.1778 383.418 36.8788 385.644 39.0628C387.912 41.2468 389.655 43.8088 390.873 46.7488C392.133 49.6888 392.763 52.8808 392.763 56.3248C392.763 59.7688 392.133 62.9608 390.873 65.9008C389.613 68.8408 387.849 71.4238 385.581 73.6498C383.355 75.8338 380.73 77.5348 377.706 78.7528C374.682 79.9708 371.406 80.5798 367.878 80.5798ZM367.878 71.7598C370.02 71.7598 371.994 71.3818 373.8 70.6258C375.648 69.8698 377.265 68.8198 378.651 67.4758C380.037 66.0898 381.108 64.4518 381.864 62.5618C382.62 60.6718 382.998 58.5928 382.998 56.3248C382.998 54.0568 382.62 51.9988 381.864 50.1508C381.108 48.2608 380.037 46.6228 378.651 45.2368C377.265 43.8508 375.648 42.8008 373.8 42.0868C371.994 41.3308 370.02 40.9528 367.878 40.9528C365.736 40.9528 363.741 41.3308 361.893 42.0868C360.087 42.8008 358.491 43.8508 357.105 45.2368C355.719 46.6228 354.648 48.2608 353.892 50.1508C353.136 51.9988 352.758 54.0568 352.758 56.3248C352.758 58.5928 353.136 60.6718 353.892 62.5618C354.648 64.4518 355.719 66.0898 357.105 67.4758C358.491 68.8198 360.087 69.8698 361.893 70.6258C363.741 71.3818 365.736 71.7598 367.878 71.7598Z" fill="#311A17"/>
<path d="M285.656 79.8247V32.8896H295.106L312.683 56.1996H308.273L325.346 32.8896H334.796V79.8247H325.031V43.6627L328.937 44.5447L310.856 67.8547H309.596L292.145 44.5447L295.421 43.6627V79.8247H285.656Z" fill="#311A17"/>
<path d="M226.934 79.8247V32.8896H236.384L253.961 56.1996H249.551L266.624 32.8896H276.074V79.8247H266.309V43.6627L270.215 44.5447L252.134 67.8547H250.874L233.423 44.5447L236.699 43.6627V79.8247H226.934Z" fill="#311A17"/>
<path d="M176.066 79.8247L191.942 32.8896H204.92L220.796 79.8247H210.149L206.999 70.2487H189.8L186.65 79.8247H176.066ZM192.509 61.7437H204.29L197.108 39.5676H199.754L192.509 61.7437Z" fill="#311A17"/>
<path d="M120.808 79.8247V32.8896H130.258L147.835 56.1996H143.425L160.498 32.8896H169.948V79.8247H160.183V43.6627L164.089 44.5447L146.008 67.8547H144.748L127.297 44.5447L130.573 43.6627V79.8247H120.808Z" fill="#311A17"/>
</svg>