<svg width="105" height="105" viewBox="0 0 105 105" fill="none" xmlns="http://www.w3.org/2000/svg">
<path d="M61.2168 38.0598C63.5717 43.9471 68.4957 49.9416 74.3831 53.367L74.9183 53.6881C80.5916 56.6853 86.9072 57.2205 93.1157 53.474C95.1495 52.2965 97.7186 52.9388 99.0031 54.8656C100.181 56.8994 99.5383 59.4684 97.6115 60.7529C87.9776 66.5333 78.1296 65.3558 70.2084 60.7529C62.3943 56.3642 56.2928 48.7641 53.2956 41.164L52.6533 39.6654L54.1519 39.0231L59.183 37.0964L60.6816 36.4541L61.3238 37.9527L61.2168 38.0598Z" fill="white"/>
<path d="M63.5445 38.3804L63.4379 38.486C65.7981 43.6381 70.1899 48.7597 75.3245 51.7472L75.336 51.7535L75.3465 51.7608L75.8284 52.0493C81.0201 54.7809 86.6121 55.2097 92.1472 51.8695L92.1765 51.8528C94.9957 50.2206 98.5142 51.0414 100.386 53.5755L100.561 53.8264L100.595 53.8756L100.624 53.9268C102.309 56.8369 101.38 60.492 98.6503 62.3115L98.6137 62.3355L98.5751 62.3585C88.2631 68.5457 77.678 67.2597 69.2667 62.3721C61.0727 57.7613 54.7177 49.8405 51.5732 41.9022L50.1934 38.6815L53.4141 37.3006L53.4475 37.287L53.482 37.2734L58.4694 35.3635L61.665 33.9941L63.5445 38.3804ZM55.1128 40.6603C57.9924 47.8355 63.7837 54.9955 71.1253 59.119L71.1379 59.1263L71.1494 59.1326C78.5666 63.4426 87.6566 64.5147 96.5962 59.1755C97.6849 58.4315 98.0347 56.9956 97.4074 55.8544C96.6475 54.7707 95.1936 54.4347 94.0539 55.0944C87.1938 59.2205 80.1793 58.5861 74.0429 55.3443L73.998 55.3202L73.9541 55.2941L73.4188 54.9732C67.2291 51.3641 62.0889 45.1384 59.5597 38.9564L55.1128 40.6603Z" fill="#311A17"/>
<path d="M51.0472 91.6875C51.0472 91.6875 51.1328 89.8249 53.8303 86.4423C69.4372 70.2574 52.3317 54.0082 52.3317 54.0082L52.5458 60.859C52.5458 60.859 49.1204 58.6111 46.9796 57.1125C46.9796 57.1125 46.6584 62.3576 45.8021 65.6759C45.0528 68.6731 43.3401 73.0619 43.3401 73.0619C37.5597 71.8844 23.5371 65.9971 25.6779 55.935C22.7878 56.4702 19.5765 56.4702 16.5792 54.7575L18.1849 49.2983C16.1404 48.8594 12.6293 48.6774 10.7882 48.7631C11.2699 47.3394 13.475 43.518 13.475 43.518C9.62143 43.8284 4.05518 42.3405 4.05518 42.3405C4.05518 42.3405 8.44395 36.4531 15.5088 31.4221C18.6131 29.1742 23.6441 27.4615 29.7456 25.6417C35.847 23.822 36.4893 18.7909 36.4893 18.7909L41.4133 13.867C41.4133 13.867 43.8967 12.6467 46.7441 14.1667C47.2472 13.8027 48.9277 11.5655 49.2275 10.7627C50.908 11.3514 53.263 12.561 54.4191 13.503C55.2005 13.2033 59.4608 11.9295 60.5741 11.8331C61.0665 12.5182 63.9994 16.4039 63.9994 20.0755C65.0592 20.4501 67.3071 19.658 68.7094 20.0755C68.7094 20.0755 68.6023 25.4276 68.8164 26.8192C70.1009 28.2108 74.8108 33.5629 74.8108 33.5629C72.67 34.3122 70.4221 34.5263 68.1741 34.8474L71.4925 43.1968C71.4925 43.1968 74.6503 47.6712 74.9179 53.6871C74.9393 54.2223 75.4424 64.37 75.0249 67.0675C73.4193 77.3437 73.1302 82.0536 62.6079 90.4029C60.0281 92.4475 58.9684 94.3635 58.9684 94.3635L51.0472 91.6875Z" fill="#9F6C45"/>
<path d="M34.1002 18.477L34.2037 17.67L34.7859 17.0888L39.7095 12.1642L39.9928 11.8819L40.3514 11.7063L41.4134 13.8681C40.3898 11.785 40.3528 11.7085 40.3524 11.7053L40.3545 11.7042C40.3559 11.7035 40.3582 11.7029 40.3597 11.7021C40.3627 11.7007 40.3659 11.6985 40.3691 11.6969C40.3757 11.6937 40.3833 11.6902 40.3911 11.6865C40.4069 11.679 40.4256 11.6709 40.4465 11.6614C40.4889 11.6421 40.5417 11.6183 40.6043 11.5924C40.7294 11.5406 40.8951 11.4775 41.0967 11.4115C41.4985 11.2802 42.0556 11.1354 42.7285 11.0561C43.6479 10.9478 44.7932 10.9629 46.0412 11.307C46.0681 11.2711 46.0967 11.2359 46.1238 11.1993C46.3583 10.8816 46.5782 10.5644 46.7478 10.2961C46.9456 9.98331 46.989 9.87136 46.9705 9.92087L47.7963 7.70996L50.0239 8.49083C51.46 8.99398 53.364 9.90606 54.8168 10.8366C55.3871 10.6597 56.061 10.4607 56.7173 10.2752C57.3848 10.0866 58.0777 9.89985 58.6857 9.75257C59.2407 9.6181 59.8823 9.47669 60.3666 9.43478L61.7308 9.31666L62.5294 10.4279C62.7635 10.7536 63.7192 12.0281 64.6044 13.7165C65.1697 14.7948 65.7671 16.1579 66.1128 17.6491C66.8831 17.5604 68.2173 17.4173 69.3963 17.7683L71.1535 18.2909L71.1169 20.1245V20.1381C71.1167 20.1476 71.1162 20.162 71.1159 20.1809C71.1152 20.2192 71.114 20.2762 71.1127 20.3492C71.1103 20.4955 71.1077 20.7069 71.1044 20.9649C71.0978 21.4817 71.0908 22.1834 71.0908 22.926C71.0908 24.0499 71.1087 25.1124 71.1441 25.8049C71.9155 26.6601 73.0645 27.9494 74.0982 29.1176C74.7685 29.875 75.3984 30.5889 75.8607 31.1131C76.0918 31.3752 76.2811 31.59 76.4126 31.7393C76.4784 31.814 76.5303 31.8721 76.5652 31.9118C76.5826 31.9315 76.596 31.9465 76.605 31.9567C76.6095 31.9618 76.6131 31.9656 76.6154 31.9682C76.6165 31.9694 76.6169 31.9707 76.6175 31.9714L76.6186 31.9724L78.98 34.6558L75.6067 35.8371C74.262 36.3077 72.8704 36.5908 71.5424 36.803L73.6362 42.0725C73.6404 42.0791 73.6454 42.0856 73.6498 42.0924C73.7551 42.2551 73.8991 42.4845 74.069 42.775C74.4083 43.3554 74.8548 44.1851 75.3087 45.2169C76.155 47.1407 77.0533 49.8279 77.2865 52.9504L77.3242 53.5807V53.5912C77.3337 53.8307 77.4668 56.5413 77.5437 59.5047C77.6176 62.3562 77.6544 65.8234 77.4047 67.4368V67.4399C76.625 72.4298 76.1099 76.5751 74.3533 80.4524C72.5471 84.439 69.5261 87.988 64.1047 92.2899L64.1037 92.2909C62.9749 93.1855 62.1912 94.042 61.7015 94.6544C61.4568 94.9604 61.2865 95.2048 61.184 95.3601C61.1329 95.4375 61.0984 95.4926 61.0806 95.5221C61.0786 95.5254 61.0759 95.5278 61.0743 95.5304L60.1021 97.2898L48.5573 93.3896L48.6409 91.578L51.0473 91.6878C48.6414 91.5771 48.6409 91.5754 48.6409 91.5738V91.5707C48.641 91.5686 48.6419 91.5665 48.642 91.5644C48.6422 91.56 48.6417 91.5555 48.642 91.5508C48.6425 91.5414 48.6434 91.5309 48.6441 91.5205C48.6455 91.5 48.6472 91.4777 48.6493 91.4536C48.6536 91.4049 48.6598 91.3482 48.6681 91.2853C48.6848 91.1595 48.7109 91.0058 48.7507 90.8253C48.8305 90.4637 48.9661 89.9976 49.1939 89.433C49.6501 88.3028 50.4718 86.7914 51.9474 84.9411L52.0174 84.8533L52.0958 84.7718C55.688 81.0465 57.2927 77.4392 57.8003 74.1772C58.3116 70.8901 57.7366 67.7718 56.6838 65.0168C56.19 63.7245 55.5946 62.5261 54.9726 61.447L55.098 65.4151L51.224 62.8728L51.2209 62.8718C51.2191 62.8706 51.2168 62.8687 51.2135 62.8666C51.2068 62.8621 51.1972 62.8552 51.1843 62.8467C51.1583 62.8296 51.1196 62.8049 51.0703 62.7725C50.9716 62.7075 50.8285 62.6122 50.6501 62.4944C50.2934 62.2588 49.7949 61.9295 49.2295 61.5526C49.1506 61.5 49.0704 61.4459 48.989 61.3916C48.797 62.9599 48.523 64.7709 48.134 66.2786C47.7299 67.8901 47.0849 69.8168 46.5597 71.2983C46.2926 72.0515 46.0502 72.7088 45.8739 73.1778C45.7858 73.4123 45.7139 73.6004 45.6638 73.7308C45.6388 73.7961 45.6188 73.8474 45.6053 73.8824C45.5986 73.8995 45.5932 73.9128 45.5896 73.9221C45.5878 73.9268 45.5864 73.931 45.5854 73.9336C45.5849 73.9349 45.5847 73.936 45.5844 73.9368L45.5833 73.9378L44.8463 75.8278L42.8591 75.4222C39.695 74.7776 34.4098 72.8934 30.1227 69.7794C26.6144 67.2311 23.3313 63.4935 23.0645 58.6465C20.6123 58.7303 17.955 58.3184 15.3843 56.8495L13.7317 55.9046L15.0833 51.3019C13.5624 51.17 11.9325 51.1222 10.8998 51.1702L7.37595 51.3333L8.50597 47.9923C8.70655 47.3995 9.09326 46.587 9.49591 45.795C8.56422 45.6915 7.67516 45.5558 6.89823 45.4176C5.91236 45.2423 5.05422 45.0565 4.44167 44.9148C4.13499 44.8439 3.88778 44.7836 3.71516 44.7403C3.62893 44.7186 3.561 44.7014 3.5134 44.689C3.48961 44.6829 3.47044 44.678 3.45696 44.6744C3.45049 44.6727 3.44526 44.6713 3.44128 44.6702C3.43931 44.6697 3.43739 44.6695 3.43605 44.6692L3.43396 44.6681L4.05489 42.3412C2.12391 40.9017 2.12385 40.9011 2.12414 40.9007L2.12728 40.8976C2.1284 40.8961 2.12991 40.8944 2.13146 40.8923C2.13498 40.8877 2.13938 40.881 2.14505 40.8735C2.15637 40.8585 2.17228 40.8378 2.19209 40.8119C2.23176 40.7599 2.28842 40.6866 2.36143 40.5934C2.50773 40.4066 2.72051 40.1401 2.99596 39.8073C3.54651 39.142 4.34948 38.2091 5.37935 37.1166C7.43457 34.9364 10.4162 32.0917 14.1111 29.4605C17.6066 26.9355 23.0476 25.1271 29.0575 23.3347C31.4868 22.6101 32.7144 21.3022 33.3601 20.2635C33.6948 19.725 33.8872 19.2328 33.9936 18.891C34.0464 18.7211 34.0765 18.5922 34.0918 18.5188C34.0995 18.4824 34.1034 18.4602 34.1044 18.454C34.1049 18.451 34.1051 18.452 34.1044 18.4572C34.104 18.4598 34.103 18.4638 34.1023 18.4687C34.102 18.4711 34.1006 18.474 34.1002 18.477ZM61.0753 95.5315L61.0743 95.5325L61.0732 95.5346C61.0726 95.5358 61.0717 95.5368 61.0711 95.5378C61.0699 95.54 61.0688 95.5427 61.068 95.544C61.0673 95.5453 61.0662 95.5457 61.0659 95.5461C61.0667 95.5448 61.069 95.5392 61.0743 95.5304L61.0753 95.5315ZM49.9999 14.0604C49.714 14.4477 49.4122 14.8321 49.1354 15.157C48.9188 15.4113 48.5477 15.8352 48.1559 16.1187L46.937 17.001L45.6094 16.2922C44.7067 15.8103 43.8889 15.7693 43.2919 15.8396C43.0696 15.8658 42.8811 15.9103 42.7358 15.9504L38.684 20.0011C38.6567 20.101 38.6281 20.2083 38.5931 20.321C38.3883 20.9793 38.039 21.8592 37.4505 22.8058C36.2498 24.7375 34.1049 26.8548 30.4331 27.9499C24.2491 29.7943 19.6346 31.4082 16.921 33.3732L16.9137 33.3795L16.9053 33.3847C13.5355 35.7844 10.7908 38.3997 8.88543 40.4209C8.76236 40.5515 8.64372 40.6804 8.52792 40.8056C10.1512 41.0608 11.8998 41.2294 13.2811 41.1181L17.8534 40.7502L15.561 44.7225L15.56 44.7246C15.5591 44.726 15.5574 44.728 15.5558 44.7309C15.552 44.7373 15.5467 44.7479 15.5391 44.7612C15.5238 44.7878 15.5006 44.8277 15.4711 44.8793C15.4119 44.9829 15.3257 45.1339 15.2213 45.3194C15.0529 45.6184 14.8391 46.0074 14.6066 46.4337C16.0618 46.5306 17.5513 46.6995 18.6897 46.9439L21.2278 47.4885L19.4852 53.4104C21.3191 53.9829 23.2671 53.9323 25.2388 53.5672L28.7836 52.9107L28.033 56.4366C27.2604 60.0679 29.2801 63.2142 32.9535 65.8824C35.7891 67.9421 39.2239 69.3957 41.8389 70.1892C41.8969 70.0283 41.9585 69.8611 42.0197 69.6885C42.5362 68.2318 43.12 66.4741 43.4654 65.0921L43.4675 65.0837L43.4696 65.0743C43.8524 63.591 44.1326 61.5928 44.3174 59.8905C44.4081 59.0549 44.4729 58.3188 44.515 57.7924C44.536 57.5298 44.551 57.3203 44.561 57.1778C44.5659 57.1065 44.5701 57.0516 44.5725 57.0158C44.5736 56.998 44.574 56.9844 44.5746 56.976C44.5748 56.9722 44.5755 56.9694 44.5756 56.9677V56.9656L44.838 52.6744L48.3608 55.1404C48.8523 55.4844 49.4162 55.8697 49.9915 56.26L49.7407 48.2265L53.99 52.2626L52.331 54.0093C53.9898 52.2631 53.9911 52.2638 53.9921 52.2647L53.9994 52.272C54.0036 52.2761 54.0098 52.2816 54.0161 52.2877C54.0287 52.2998 54.045 52.3159 54.0652 52.3357C54.1062 52.3759 54.1633 52.4319 54.2335 52.503C54.374 52.6452 54.5701 52.8487 54.8095 53.1093C55.2882 53.6303 55.9426 54.3837 56.6723 55.3369C58.1245 57.2338 59.9131 59.9741 61.183 63.2972C62.4556 66.6274 63.2304 70.606 62.5597 74.9173C61.8901 79.2218 59.8052 83.68 55.6563 88.0165C54.9696 88.8846 54.4949 89.6155 54.1666 90.2002L58.0491 91.5121C58.7333 90.6741 59.736 89.6066 61.1119 88.5162C66.2118 84.4693 68.5958 81.4885 69.966 78.4641C71.3855 75.3308 71.8186 71.9839 72.6442 66.6998C72.8119 65.6157 72.8064 62.6596 72.7278 59.6291C72.653 56.7439 72.5257 54.1396 72.5114 53.795L72.4821 53.3058C72.3006 50.8817 71.5961 48.7396 70.8995 47.1561C70.5307 46.3177 70.1716 45.6529 69.9106 45.2065C69.7804 44.9838 69.6758 44.8165 69.6074 44.711C69.5733 44.6583 69.5475 44.6212 69.5332 44.6002C69.5295 44.5947 69.5271 44.5899 69.5248 44.5866L69.5238 44.5856L69.3597 44.3524L64.8062 32.8965L67.8335 32.4637C68.722 32.3368 69.5438 32.2318 70.3204 32.1177C69.0229 30.6523 67.6413 29.0984 67.0463 28.4538L66.5477 27.9133L66.4359 27.1858C66.2942 26.2644 66.2738 24.3597 66.2738 22.926C66.2738 22.7744 66.2754 22.6245 66.2759 22.4776C65.9151 22.5187 65.485 22.5661 65.08 22.5821C64.619 22.6003 63.9047 22.5973 63.1963 22.3469L61.5907 21.7793V20.0764C61.5907 18.8183 61.0664 17.3423 60.3384 15.9536C60.0551 15.4133 59.7624 14.9271 59.4979 14.5152C59.0442 14.63 58.537 14.7662 58.0271 14.9103C56.7172 15.2805 55.5558 15.6474 55.281 15.7528L53.9785 16.2525L52.8976 15.3713C52.3374 14.9149 51.2811 14.3028 50.1975 13.7824C50.1308 13.8754 50.0668 13.9698 49.9999 14.0604ZM4.05489 42.3412L3.43396 44.6681L0 43.7503L2.12414 40.9007L4.05489 42.3412Z" fill="#311A17"/>
<path d="M64.7485 52.724C66.9857 58.6542 72.0275 64.6058 77.9149 68.0312L78.4501 68.3524C84.1234 71.3496 90.4389 71.8848 96.6474 68.1383C98.6813 66.9608 101.25 67.6031 102.535 69.5298C103.712 71.5637 103.07 74.1327 101.143 75.4172C91.5094 81.1976 81.6614 80.0201 73.7402 75.4172C65.926 71.0285 59.8245 63.4284 56.8273 55.8283L56.1851 54.1156C59.2037 53.4733 61.473 52.5635 64.1063 50.9043C64.1063 50.9043 64.5773 52.2745 64.7485 52.724Z" fill="white"/>
<path d="M65.8777 50.2946L65.8787 50.2956C65.8789 50.2962 65.8783 50.2976 65.8787 50.2988C65.8796 50.3013 65.8812 50.3053 65.8829 50.3103C65.8863 50.3202 65.8921 50.3344 65.8986 50.3531C65.9116 50.3909 65.9298 50.446 65.9529 50.5131C65.9994 50.6474 66.0629 50.8313 66.1317 51.0284L66.4996 52.057L66.5017 52.0623C68.5813 57.5747 73.328 63.1949 78.8567 66.4117L78.8682 66.418L78.8786 66.4243L79.3616 66.7149C84.5529 69.4457 90.1447 69.8738 95.6794 66.534L95.7087 66.5173C98.5279 64.8851 102.046 65.7057 103.918 68.24L104.093 68.4909L104.127 68.54L104.156 68.5913C105.841 71.5014 104.912 75.1565 102.183 76.976L102.146 77L102.107 77.023C91.7953 83.2102 81.2101 81.9242 72.7989 77.0366C64.5871 72.4158 58.2219 64.4709 55.0845 56.5154L55.074 56.4862L53.667 52.7355L55.7953 52.2828C58.602 51.6857 60.6646 50.8584 63.1075 49.3193L65.1093 48.0586L65.8777 50.2946ZM63.0991 53.6491C61.6593 54.4042 60.2417 54.97 58.6836 55.421C61.5763 62.5638 67.3487 69.6785 74.6575 73.7835L74.6701 73.7908L74.6816 73.7971C82.0989 78.1072 91.1896 79.1796 100.129 73.8399C101.217 73.0963 101.566 71.6616 100.941 70.521C100.181 69.4356 98.7265 69.0987 97.5861 69.7589C90.726 73.8849 83.7114 73.2506 77.5751 70.0088L77.5301 69.9847L77.4862 69.9586L76.951 69.6377C70.8015 66.0523 65.5379 59.8989 63.0991 53.6491Z" fill="#311A17"/>
<path d="M39.1661 28.9823V32.7288C38.1627 32.7288 36.9697 32.6783 36.2245 32.7518L36.2235 32.7508C35.4024 32.8373 34.6254 33.452 33.9467 34.4024C33.6649 34.7971 33.4431 35.1925 33.2829 35.5126L36.7744 43.8931H39.1661V47.6396H34.2771L29.2354 35.5387L29.4821 34.854L31.2445 35.4906C29.4825 34.8547 29.4829 34.8536 29.4831 34.853C29.4834 34.8521 29.4838 34.8498 29.4841 34.8488C29.4849 34.8468 29.4864 34.8449 29.4873 34.8425C29.4892 34.8374 29.4909 34.8309 29.4936 34.8237C29.4989 34.8093 29.5059 34.7905 29.5145 34.7683C29.5316 34.7238 29.5554 34.6637 29.5855 34.5906C29.646 34.4443 29.7341 34.2437 29.849 34.0052C30.0769 33.5319 30.4232 32.8891 30.8975 32.225C31.8012 30.9594 33.4197 29.272 35.8503 29.0241L35.8555 29.0231C36.8445 28.9254 38.457 28.9823 39.1661 28.9823ZM33.0038 36.1325L33.0059 36.1283L33.0049 36.1262C33.0038 36.129 33.0042 36.1315 33.0038 36.1325Z" fill="#311A17"/>
<path d="M58.5401 38.274C57.0415 39.0233 56.6133 39.6655 56.6133 40.0937C56.6133 40.6289 57.8978 42.4487 59.0753 42.5557C59.9316 42.5557 61.7514 42.6627 62.0725 42.3416C62.5007 42.0205 62.7147 38.381 62.6077 38.1669C62.3936 37.9528 59.9316 37.6317 58.5401 38.274Z" fill="#311A17"/>
</svg>