<svg width="522" height="130" viewBox="0 0 522 130" fill="none" xmlns="http://www.w3.org/2000/svg">
<path d="M96.4244 71.2082C89.0556 75.6189 82.242 75.2878 77.3508 73.9208C77.2974 71.6995 77.2547 70.0655 77.2227 68.8801C79.444 69.6597 81.6653 70.0442 83.8546 70.0442C87.2934 70.0442 90.6468 69.0937 93.8293 67.1714C94.972 66.5093 96.4244 66.8403 97.1827 67.9296C97.8128 69.0723 97.4496 70.5247 96.4244 71.2082Z" fill="white"/>
<path d="M70.6554 87.8468C69.3632 92.2575 67.035 95.6002 60.8623 100.513C59.4953 101.591 58.4914 102.659 57.8079 103.492L53.8672 102.157C54.4225 101.239 55.2021 100.15 56.2167 99.1458C62.1758 93.2614 63.2331 86.4478 62.0263 80.2217C64.5574 83.2013 67.4942 85.8071 70.6554 87.8468Z" fill="white"/>
<path d="M53.9957 64.4694L50.4928 60.6034L49.5103 68.25L44.7579 64.2772L44.4696 69.0296C44.4696 69.0296 44.1492 74.081 43.3589 77.1353C42.9638 78.7159 42.2696 80.745 41.7356 82.2294C37.4211 80.9265 31.6221 77.9897 29.1124 74.1664C27.9163 72.3402 27.5425 70.4927 27.9697 68.5063L28.7173 64.9927L25.1824 65.6442C22.9504 66.05 21.0921 66.0073 19.4368 65.4947L21.1776 59.5675L18.6358 59.0335C17.5038 58.7986 16.0087 58.617 14.5563 58.5209C14.8766 57.9442 15.2077 57.3569 15.5174 56.8229L17.8455 52.8394L13.2427 53.2239C11.8009 53.3414 10.0495 53.1598 8.50098 52.9142C10.4019 50.8637 13.2854 48.055 16.8844 45.4919C19.5863 43.5376 24.2319 41.9143 30.3619 40.0881C36.257 38.326 38.0725 34.0435 38.5852 32.1532L42.6327 28.1164C43.156 27.9775 44.2773 27.828 45.5482 28.4902L46.9365 29.2057L48.154 28.2338C48.9443 27.6038 49.6171 26.8669 50.2045 25.9805C51.219 26.4824 52.1695 27.0805 52.6287 27.497L53.7714 28.5329L55.1918 27.9241C55.6831 27.7105 57.6267 27.0591 59.3675 26.6533C60.2539 28.0309 61.45 30.295 61.45 32.228V34.0221L63.1587 34.5348C64.1199 34.8231 65.1558 34.7056 66.149 34.5988C66.1703 36.2542 66.1917 38.2939 66.2558 39.1376L66.3198 39.9706L66.8859 40.59C67.4839 41.2308 68.8722 42.79 70.1538 44.2424C69.7052 44.3065 69.246 44.3706 68.7868 44.4347L64.6538 45.022L69.0965 56.1821L69.2781 56.5559C69.2781 56.5559 72.1188 61.2229 72.3431 65.8364C72.3431 66.0286 72.4712 70.9412 72.5246 73.5684C69.8227 70.7597 67.6121 67.4383 66.3412 64.1384L66.2664 63.9675C66.181 63.7859 65.9354 63.0811 65.7432 62.4403L65.0383 60.1549L62.9878 61.383C60.3607 62.9636 58.3102 63.7966 55.6617 64.3626L54.1772 64.6723C54.1132 64.5976 54.0598 64.5335 53.9957 64.4694Z" fill="white"/>
<path d="M103.912 80.6276L103.848 80.5315C102.011 77.7761 98.3369 76.9111 95.4535 78.5771C90.3059 81.6848 84.8167 81.7382 79.2313 78.7907L78.6653 78.4596C78.3449 78.2674 78.0138 78.0752 77.7041 77.8723C79.5623 78.2994 81.6235 78.5771 83.8448 78.5771C88.2128 78.5771 93.1894 77.4985 98.4224 74.3694C101.178 72.5325 102.043 68.8588 100.387 65.9966L100.323 65.9005C98.4864 63.1452 94.8127 62.2802 91.9292 63.9462C87.2302 66.7869 82.2322 67.0646 77.074 64.8112C76.6041 59.7598 74.0838 55.2317 73.4857 54.2278L71.3712 48.9201C72.7168 48.7065 74.0731 48.4289 75.4294 47.9483L78.7934 46.7735L76.4439 44.093C76.2731 43.9007 72.7381 39.8959 71.0187 37.9843C70.9653 36.393 70.9547 33.4348 70.9547 32.228V30.4552L69.2566 29.9319C68.1566 29.5902 67.0032 29.6756 65.9566 29.7824C65.0382 25.831 62.3149 22.5097 62.2829 22.467L61.4179 21.4311L60.0936 21.6233C58.3208 21.8796 56.1101 22.5204 54.647 23.0116C53.2374 22.0611 51.3578 21.1213 49.8306 20.6408L47.7588 20L46.9044 21.9864C46.6374 22.6165 46.3598 23.1184 46.05 23.5349C42.985 22.6485 40.5821 23.7165 40.2831 23.866L39.9093 24.0475L34.7084 29.2485L34.1424 29.8358L34.0249 30.6048C34.0036 30.7543 33.4162 34.161 28.9842 35.4746C22.192 37.5037 17.3328 39.2338 14.0756 41.594C6.80285 46.7735 2.30677 52.7541 2.11454 53.0104L0 55.8404L3.41744 56.7589C3.58832 56.8016 6.36499 57.5492 9.46205 57.8909C9.03486 58.7453 8.6504 59.5676 8.47953 60.1443L7.4543 63.4549L10.9145 63.252C11.897 63.1879 13.5203 63.252 15.0474 63.3802L13.7018 67.9724L15.3465 68.9122C17.6212 70.2151 20.1522 70.8238 23.0037 70.717C23.1211 72.8209 23.826 74.8606 25.0968 76.7936C29.0055 82.7635 37.8055 86.4372 42.7608 87.4518L44.7365 87.8469L45.4734 85.9673C45.5481 85.7858 47.2462 81.4072 48.0258 78.3208C48.3675 76.9965 48.6238 75.416 48.816 73.9422L53.1519 77.5839L53.814 72.4471C54.7004 73.9315 55.6082 75.6936 56.3131 77.6266C58.9509 84.7605 57.7761 90.8479 52.8315 95.7284C49.6384 98.9002 48.2821 102.585 48.2287 102.745L47.3957 105.052L57.947 108.619L59.8266 109.238L60.8091 107.529C60.8091 107.529 61.7382 105.938 63.8528 104.272C70.5275 98.9643 73.3682 94.9061 74.9274 90.2819C78.9857 92.2362 83.1613 93.2187 87.3157 93.2187C92.2923 93.2187 97.2476 91.809 101.947 89.0003C104.702 87.1634 105.567 83.4897 103.912 80.6276ZM83.8555 70.0442C87.2943 70.0442 90.6477 69.0937 93.8302 67.1714C94.9729 66.5093 96.4253 66.8403 97.1835 67.9296C97.8136 69.0723 97.4505 70.5248 96.4253 71.2082C89.0564 75.6189 82.2429 75.2878 77.3517 73.9208C77.2983 71.6995 77.2556 70.0655 77.2235 68.8801C79.4449 69.6597 81.6662 70.0442 83.8555 70.0442ZM62.0266 80.2218C64.5576 83.2013 67.4945 85.8071 70.6556 87.8469C69.3634 92.2576 67.0353 95.6002 60.8625 100.513C59.4956 101.591 58.4917 102.659 57.8082 103.492L53.8674 102.157C54.4228 101.239 55.2024 100.15 56.2169 99.1458C62.1761 93.2614 63.2334 86.4479 62.0266 80.2218ZM54.1772 64.6724C54.1131 64.5976 54.0597 64.5336 53.9956 64.4695L50.4927 60.6035L49.5102 68.25L44.7578 64.2772L44.4695 69.0296C44.4695 69.0296 44.1491 74.081 43.3588 77.1354C42.9637 78.7159 42.2695 80.7451 41.7355 82.2295C37.421 80.9266 31.622 77.9897 29.1123 74.1665C27.9162 72.3403 27.5425 70.4927 27.9696 68.5063L28.7172 64.9928L25.1823 65.6442C22.9503 66.05 21.092 66.0073 19.4367 65.4947L21.1775 59.5676L18.6357 59.0336C17.5037 58.7987 16.0086 58.6171 14.5562 58.521C14.8766 57.9443 15.2076 57.3569 15.5173 56.8229L17.8455 52.8395L13.2426 53.224C11.8009 53.3414 10.0494 53.1599 8.50089 52.9142C10.4018 50.8638 13.2853 48.0551 16.8843 45.492C19.5862 43.5376 24.2318 41.9144 30.3618 40.0882C36.2569 38.326 38.0725 34.0436 38.5851 32.1533L42.6326 28.1164C43.1559 27.9776 44.2772 27.8281 45.5481 28.4902L46.9364 29.2057L48.1539 28.2339C48.9442 27.6038 49.617 26.8669 50.2044 25.9805C51.2189 26.4825 52.1694 27.0805 52.6286 27.497L53.7713 28.5329L55.1917 27.9242C55.683 27.7106 57.6266 27.0592 59.3674 26.6533C60.2538 28.031 61.4499 30.295 61.4499 32.228V34.0222L63.1586 34.5348C64.1198 34.8232 65.1557 34.7057 66.1489 34.5989C66.1702 36.2542 66.1916 38.294 66.2557 39.1377L66.3198 39.9707L66.8858 40.5901C67.4838 41.2309 68.8722 42.7901 70.1537 44.2425C69.7052 44.3066 69.2459 44.3706 68.7867 44.4347L64.6538 45.0221L69.0964 56.1822L69.278 56.556C69.278 56.556 72.1187 61.2229 72.343 65.8365C72.343 66.0287 72.4712 70.9413 72.5246 73.5684C69.8226 70.7597 67.612 67.4384 66.3411 64.1384L66.2664 63.9675C66.1809 63.786 65.9353 63.0811 65.7431 62.4404L65.0382 60.155L62.9877 61.3831C60.3606 62.9637 58.3101 63.7967 55.6616 64.3627L54.1772 64.6724ZM99.9389 85.8392C90.0496 91.777 81.1109 89.2246 75.9206 86.5867C75.3973 86.3304 74.9168 86.0741 74.4789 85.8178C74.2226 85.679 73.9663 85.5295 73.7207 85.3586C72.9731 84.9314 72.2469 84.4508 71.5314 83.9275C65.8819 79.912 61.1509 73.9636 58.5344 67.4811C60.0402 67.0326 61.4499 66.4665 62.9344 65.6976C64.8033 70.45 68.2421 75.0742 72.3964 78.5771C73.1012 79.1752 73.8274 79.7305 74.5643 80.2538C75.2905 80.7664 76.0167 81.2363 76.7643 81.6742H76.775L77.3944 82.0479C84.2079 85.6469 91.1283 85.5615 97.3544 81.8023C98.4864 81.1402 99.9495 81.4713 100.708 82.5606C101.327 83.7033 100.975 85.1557 99.9389 85.8392Z" fill="#83848D"/>
<path d="M99.9377 85.8398C90.0484 91.7776 81.1097 89.2252 75.9194 86.5874C75.3961 86.3311 74.9156 86.0747 74.4777 85.8184C74.2214 85.6796 73.9651 85.5301 73.7195 85.3592C72.9719 84.932 72.2457 84.4515 71.5302 83.9282C65.8807 79.9127 61.1497 73.9642 58.5332 67.4817C60.039 67.0332 61.4487 66.4672 62.9332 65.6982C64.8021 70.4506 68.2409 75.0748 72.3952 78.5777C73.1001 79.1758 73.8263 79.7311 74.5631 80.2544C75.2894 80.767 76.0156 81.2369 76.7631 81.6748H76.7738L77.3932 82.0486C84.2067 85.6476 91.1271 85.5621 97.3532 81.8029C98.4852 81.1408 99.9483 81.4719 100.707 82.5612C101.326 83.7039 100.974 85.1563 99.9377 85.8398Z" fill="white"/>
<path d="M39.0649 59.728H34.1843L29.1543 47.6708L29.3892 46.998C29.464 46.7737 31.3329 41.5942 35.7756 41.167H35.9571H39.0542V44.9048H36.0639C34.6329 45.0971 33.6397 46.731 33.1805 47.6495L36.662 56.0115H39.0435V59.7493L39.0649 59.728Z" fill="#83848D"/>
<path d="M58.6727 50.138C57.0601 50.5866 56.4834 51.772 56.4834 52.1992C56.4834 52.6263 57.7649 54.5487 58.9397 54.6555C59.794 54.6555 61.6096 54.6555 61.93 54.4419C62.3571 54.1215 62.5707 50.4904 62.4639 50.2769C62.2503 50.0633 59.6659 49.8604 58.6727 50.138Z" fill="#83848D"/>
<path d="M483.819 89.7592V42.8242H493.584V63.1102H511.854V42.8242H521.619V89.7592H511.854V71.6152H493.584V89.7592H483.819Z" fill="white"/>
<path d="M456.24 89.7592V51.3292H444.333V42.8242H477.723V51.3292H466.005V89.7592H456.24Z" fill="white"/>
<path d="M419.597 90.5152C415.901 90.5152 412.604 89.7382 409.706 88.1842C406.808 86.6302 404.519 84.5092 402.839 81.8212C401.201 79.0912 400.382 76.0042 400.382 72.5602V42.8242H410.147V71.9302C410.147 73.7782 410.546 75.4582 411.344 76.9702C412.184 78.4402 413.318 79.5952 414.746 80.4352C416.174 81.2752 417.791 81.6952 419.597 81.6952C421.445 81.6952 423.062 81.2752 424.448 80.4352C425.876 79.5952 426.989 78.4402 427.787 76.9702C428.627 75.4582 429.047 73.7782 429.047 71.9302V42.8242H438.812V72.5602C438.812 76.0042 437.972 79.0912 436.292 81.8212C434.654 84.5092 432.386 86.6302 429.488 88.1842C426.59 89.7382 423.293 90.5152 419.597 90.5152Z" fill="white"/>
<path d="M367.879 90.5154C364.351 90.5154 361.075 89.9064 358.051 88.6884C355.027 87.4704 352.381 85.7694 350.113 83.5854C347.887 81.3594 346.144 78.7764 344.884 75.8364C343.624 72.8964 342.994 69.7044 342.994 66.2604C342.994 62.8164 343.603 59.6244 344.821 56.6844C346.081 53.7444 347.824 51.1824 350.05 48.9984C352.318 46.8144 354.964 45.1134 357.988 43.8954C361.012 42.6774 364.309 42.0684 367.879 42.0684C371.449 42.0684 374.746 42.6774 377.77 43.8954C380.794 45.1134 383.419 46.8144 385.645 48.9984C387.913 51.1824 389.656 53.7444 390.874 56.6844C392.134 59.6244 392.764 62.8164 392.764 66.2604C392.764 69.7044 392.134 72.8964 390.874 75.8364C389.614 78.7764 387.85 81.3594 385.582 83.5854C383.356 85.7694 380.731 87.4704 377.707 88.6884C374.683 89.9064 371.407 90.5154 367.879 90.5154ZM367.879 81.6954C370.021 81.6954 371.995 81.3174 373.801 80.5614C375.649 79.8054 377.266 78.7554 378.652 77.4114C380.038 76.0254 381.109 74.3874 381.865 72.4974C382.621 70.6074 382.999 68.5284 382.999 66.2604C382.999 63.9924 382.621 61.9344 381.865 60.0864C381.109 58.1964 380.038 56.5584 378.652 55.1724C377.266 53.7864 375.649 52.7364 373.801 52.0224C371.995 51.2664 370.021 50.8884 367.879 50.8884C365.737 50.8884 363.742 51.2664 361.894 52.0224C360.088 52.7364 358.492 53.7864 357.106 55.1724C355.72 56.5584 354.649 58.1964 353.893 60.0864C353.137 61.9344 352.759 63.9924 352.759 66.2604C352.759 68.5284 353.137 70.6074 353.893 72.4974C354.649 74.3874 355.72 76.0254 357.106 77.4114C358.492 78.7554 360.088 79.8054 361.894 80.5614C363.742 81.3174 365.737 81.6954 367.879 81.6954Z" fill="white"/>
<path d="M285.657 89.7592V42.8242H295.107L312.684 66.1342H308.274L325.347 42.8242H334.797V89.7592H325.032V53.5972L328.938 54.4792L310.857 77.7892H309.597L292.146 54.4792L295.422 53.5972V89.7592H285.657Z" fill="white"/>
<path d="M226.934 89.7592V42.8242H236.384L253.961 66.1342H249.551L266.624 42.8242H276.074V89.7592H266.309V53.5972L270.215 54.4792L252.134 77.7892H250.874L233.423 54.4792L236.699 53.5972V89.7592H226.934Z" fill="white"/>
<path d="M176.066 89.7592L191.942 42.8242H204.92L220.796 89.7592H210.149L206.999 80.1832H189.8L186.65 89.7592H176.066ZM192.509 71.6782H204.29L197.108 49.5022H199.754L192.509 71.6782Z" fill="white"/>
<path d="M120.809 89.7592V42.8242H130.259L147.836 66.1342H143.426L160.499 42.8242H169.949V89.7592H160.184V53.5972L164.09 54.4792L146.009 77.7892H144.749L127.298 54.4792L130.574 53.5972V89.7592H120.809Z" fill="white"/>
</svg>
