<svg width="522" height="130" viewBox="0 0 522 130" fill="none" xmlns="http://www.w3.org/2000/svg">
<path d="M61.0709 50.2776C63.4203 56.151 68.3325 62.1311 74.2059 65.5484L74.7398 65.8687C80.3996 68.8588 86.7001 69.3927 92.8939 65.6552C94.9229 64.4805 97.4858 65.1212 98.7672 67.0434C99.9419 69.0724 99.3012 71.6353 97.379 72.9168C87.768 78.6833 77.9435 77.5087 70.0411 72.9168C62.2456 68.5384 56.1586 60.9565 53.1686 53.3745L52.5278 51.8794L54.0229 51.2387L59.0419 49.3165L60.537 48.6758L61.1777 50.1708L61.0709 50.2776Z" fill="white"/>
<path d="M63.3931 50.5975L63.2867 50.7028C65.6413 55.8427 70.0227 60.9521 75.145 63.9325L75.1565 63.9388L75.1669 63.9461L75.6477 64.2339C80.827 66.9589 86.4057 67.3867 91.9277 64.0545L91.9569 64.0378C94.7694 62.4096 98.2796 63.2283 100.146 65.7565L100.322 66.0067L100.355 66.0558L100.384 66.1069C102.065 69.0101 101.138 72.6564 98.4153 74.4716L98.3788 74.4956L98.3402 74.5185C88.0529 80.691 77.4929 79.4081 69.1017 74.5321C60.9271 69.9322 54.5873 62.0303 51.4503 54.1109L50.0737 50.8978L53.2868 49.5202L53.3201 49.5067L53.3546 49.4931L58.33 47.5878L61.518 46.2217L63.3931 50.5975ZM54.9814 52.872C57.8542 60.03 63.6317 67.173 70.9559 71.2867L70.9684 71.294L70.9799 71.3003C78.3794 75.6 87.4478 76.6696 96.3661 71.343C97.4522 70.6008 97.8011 69.1684 97.1754 68.0299C96.4173 66.9488 94.9669 66.6136 93.8299 67.2717C86.986 71.388 79.9882 70.7551 73.8665 67.521L73.8216 67.497L73.7779 67.4709L73.2439 67.1508C67.0689 63.5503 61.9409 57.3394 59.4177 51.1721L54.9814 52.872Z" fill="#83848D"/>
<path d="M50.9255 103.778C50.9255 103.778 51.011 101.92 53.702 98.5453C69.2718 82.3989 52.207 66.1884 52.207 66.1884L52.4206 73.0229C52.4206 73.0229 49.0034 70.7803 46.8676 69.2853C46.8676 69.2853 46.5472 74.5179 45.6929 77.8284C44.9454 80.8185 43.2368 85.1968 43.2368 85.1968C37.4702 84.0221 23.4809 78.1487 25.6167 68.1106C22.7334 68.6446 19.5297 68.6446 16.5397 66.936L18.1415 61.4897C16.1018 61.0519 12.5992 60.8704 10.7624 60.9558C11.243 59.5355 13.4428 55.7232 13.4428 55.7232C9.59841 56.0329 4.04541 54.5485 4.04541 54.5485C4.04541 54.5485 8.42374 48.6751 15.4718 43.6561C18.5686 41.4135 23.5877 39.7049 29.6746 37.8895C35.7616 36.0741 36.4023 31.055 36.4023 31.055L41.3146 26.1428C41.3146 26.1428 43.7921 24.9254 46.6326 26.4418C47.1346 26.0787 48.8111 23.8468 49.1101 23.0459C50.7867 23.6332 53.1361 24.8399 54.2894 25.7797C55.0689 25.4807 59.3191 24.2099 60.4297 24.1138C60.9209 24.7972 63.847 28.6736 63.847 32.3365C64.9042 32.7103 67.1467 31.92 68.5456 32.3365C68.5456 32.3365 68.4389 37.6759 68.6524 39.0642C69.9339 40.4524 74.6326 45.7918 74.6326 45.7918C72.4968 46.5394 70.2543 46.7529 68.0117 47.0733L71.3221 55.4028C71.3221 55.4028 74.4724 59.8666 74.7394 65.8681C74.7607 66.402 75.2626 76.5256 74.8462 79.2166C73.2443 89.4683 72.956 94.167 62.4587 102.497C59.8851 104.536 58.8279 106.448 58.8279 106.448L50.9255 103.778Z" fill="white"/>
<path d="M34.019 30.7414L34.1223 29.9363L34.7031 29.3565L39.615 24.4436L39.8976 24.162L40.2553 23.9868L41.3148 26.1435C40.2937 24.0653 40.2567 23.989 40.2563 23.9858L40.2584 23.9848C40.2598 23.9841 40.2621 23.9834 40.2636 23.9827C40.2666 23.9812 40.2698 23.979 40.273 23.9775C40.2796 23.9743 40.2871 23.9707 40.2949 23.967C40.3107 23.9596 40.3293 23.9515 40.3502 23.942C40.3925 23.9228 40.4451 23.899 40.5077 23.8732C40.6324 23.8216 40.7977 23.7585 40.9988 23.6928C41.3997 23.5617 41.9555 23.4173 42.6267 23.3382C43.544 23.2301 44.6866 23.2452 45.9316 23.5885C45.9584 23.5527 45.987 23.5176 46.0139 23.4811C46.2479 23.1641 46.4673 22.8477 46.6365 22.58C46.8338 22.2679 46.8771 22.1563 46.8587 22.2056L47.6825 20L49.9048 20.779C51.3375 21.281 53.2369 22.1909 54.6863 23.1192C55.2553 22.9427 55.9275 22.7442 56.5822 22.5592C57.2481 22.371 57.9395 22.1847 58.5459 22.0377C59.0997 21.9036 59.7397 21.7625 60.2229 21.7207L61.5838 21.6029L62.3805 22.7114C62.6141 23.0364 63.5675 24.3078 64.4506 25.9923C65.0146 27.068 65.6105 28.4278 65.9554 29.9155C66.7238 29.8269 68.0549 29.6842 69.231 30.0344L70.9841 30.5558L70.9476 32.385V32.3985C70.9474 32.408 70.9469 32.4224 70.9465 32.4413C70.9458 32.4794 70.9446 32.5363 70.9434 32.6092C70.941 32.7551 70.9384 32.966 70.9351 33.2234C70.9285 33.739 70.9215 34.439 70.9215 35.1798C70.9215 36.301 70.9394 37.361 70.9747 38.0518C71.7443 38.905 72.8905 40.1913 73.9218 41.3567C74.5905 42.1122 75.2189 42.8245 75.6801 43.3475C75.9106 43.6089 76.0995 43.8231 76.2307 43.9721C76.2963 44.0466 76.3481 44.1046 76.383 44.1442C76.4003 44.1639 76.4136 44.1789 76.4226 44.189C76.4271 44.1941 76.4307 44.1979 76.433 44.2005C76.4341 44.2017 76.4345 44.203 76.4351 44.2036L76.4361 44.2047L78.792 46.8817L75.4267 48.0601C74.0852 48.5296 72.6969 48.8121 71.372 49.0237L73.4609 54.2808C73.4651 54.2873 73.4701 54.2938 73.4744 54.3006C73.5795 54.4628 73.7231 54.6917 73.8926 54.9816C74.2312 55.5606 74.6766 56.3883 75.1294 57.4177C75.9737 59.3368 76.8699 62.0177 77.1025 65.1327L77.1401 65.7616V65.772C77.1496 66.0109 77.2824 68.7151 77.3591 71.6714C77.4328 74.5162 77.4695 77.9751 77.2204 79.5846V79.5878C76.4426 84.5657 75.9287 88.7012 74.1763 92.5692C72.3744 96.5464 69.3606 100.087 63.9521 104.379L63.9511 104.38C62.825 105.272 62.0431 106.127 61.5546 106.737C61.3105 107.043 61.1406 107.287 61.0384 107.441C60.9874 107.519 60.9529 107.574 60.9351 107.603C60.9331 107.606 60.9304 107.609 60.9289 107.611L59.959 109.367L48.4417 105.476L48.5251 103.668L50.9258 103.778C48.5256 103.667 48.5251 103.666 48.5251 103.664V103.661C48.5252 103.659 48.5261 103.657 48.5262 103.655C48.5264 103.65 48.5259 103.646 48.5262 103.641C48.5267 103.632 48.5276 103.621 48.5283 103.611C48.5296 103.591 48.5314 103.568 48.5335 103.544C48.5378 103.496 48.5439 103.439 48.5523 103.376C48.5689 103.251 48.5949 103.097 48.6346 102.917C48.7142 102.557 48.8495 102.092 49.0768 101.528C49.5319 100.401 50.3517 98.8931 51.8237 97.0473L51.8936 96.9597L51.9718 96.8783C55.5554 93.1619 57.1563 89.5632 57.6626 86.309C58.1728 83.0297 57.5991 79.9189 56.5489 77.1704C56.0562 75.8811 55.4623 74.6857 54.8417 73.6091L54.9669 77.5677L51.102 75.0315L51.0989 75.0305C51.0972 75.0293 51.0949 75.0274 51.0916 75.0253C51.0849 75.0209 51.0753 75.0139 51.0624 75.0054C51.0365 74.9884 50.9979 74.9637 50.9487 74.9314C50.8502 74.8666 50.7075 74.7715 50.5295 74.654C50.1736 74.419 49.6763 74.0904 49.1123 73.7144C49.0336 73.662 48.9536 73.608 48.8724 73.5538C48.6808 75.1184 48.4075 76.925 48.0194 78.4291C47.6162 80.0369 46.9728 81.959 46.4488 83.4369C46.1824 84.1884 45.9406 84.844 45.7647 85.312C45.6768 85.5459 45.605 85.7335 45.5551 85.8637C45.5301 85.9288 45.5102 85.98 45.4967 86.0149C45.4901 86.032 45.4847 86.0452 45.481 86.0545C45.4792 86.0592 45.4779 86.0634 45.4769 86.066C45.4764 86.0673 45.4761 86.0683 45.4758 86.0691L45.4748 86.0702L44.7396 87.9556L42.7571 87.551C39.6005 86.908 34.3279 85.0283 30.0509 81.9217C26.551 79.3795 23.2757 75.6507 23.0096 70.8153C20.5633 70.8989 17.9123 70.488 15.3477 69.0226L13.699 68.0798L15.0474 63.4881C13.5301 63.3566 11.9041 63.3088 10.8739 63.3567L7.35839 63.5194L8.48572 60.1865C8.68582 59.5951 9.07161 58.7845 9.4733 57.9944C8.54383 57.8911 7.65689 57.7558 6.88181 57.6179C5.89828 57.443 5.04219 57.2577 4.4311 57.1163C4.12515 57.0455 3.87852 56.9853 3.70631 56.9421C3.62029 56.9206 3.55252 56.9034 3.50504 56.891C3.4813 56.8849 3.46217 56.88 3.44873 56.8764C3.44227 56.8747 3.43705 56.8733 3.43308 56.8723C3.43112 56.8717 3.4292 56.8716 3.42787 56.8712L3.42578 56.8702L4.04524 54.5488C2.11885 53.1127 2.1188 53.1121 2.11908 53.1117L2.12221 53.1086C2.12333 53.1071 2.12484 53.1054 2.12638 53.1034C2.12989 53.0987 2.13429 53.0921 2.13994 53.0846C2.15124 53.0696 2.16711 53.049 2.18687 53.0231C2.22645 52.9713 2.28297 52.8981 2.35581 52.8051C2.50176 52.6188 2.71404 52.3529 2.98883 52.0209C3.53807 51.3572 4.33912 50.4265 5.36654 49.3366C7.41687 47.1616 10.3914 44.3237 14.0775 41.6987C17.5647 39.1798 22.9927 37.3757 28.9883 35.5876C31.4118 34.8647 32.6365 33.5599 33.2807 32.5237C33.6146 31.9865 33.8066 31.4954 33.9126 31.1544C33.9653 30.985 33.9954 30.8563 34.0107 30.7831C34.0183 30.7467 34.0222 30.7246 34.0232 30.7185C34.0237 30.7155 34.0239 30.7165 34.0232 30.7216C34.0228 30.7243 34.0218 30.7282 34.0211 30.7331C34.0208 30.7355 34.0194 30.7384 34.019 30.7414ZM60.9299 107.612L60.9289 107.613L60.9278 107.616C60.9272 107.617 60.9263 107.618 60.9257 107.619C60.9245 107.621 60.9234 107.624 60.9226 107.625C60.9219 107.626 60.9208 107.627 60.9205 107.627C60.9213 107.626 60.9236 107.62 60.9289 107.611L60.9299 107.612ZM49.8809 26.3354C49.5957 26.7217 49.2946 27.1052 49.0184 27.4293C48.8023 27.683 48.4321 28.1059 48.0413 28.3887L46.8253 29.2689L45.5009 28.5618C44.6002 28.0811 43.7844 28.0401 43.1888 28.1103C42.967 28.1365 42.779 28.1808 42.634 28.2208L38.5919 32.2619C38.5647 32.3616 38.5362 32.4686 38.5012 32.581C38.297 33.2377 37.9484 34.1155 37.3614 35.0599C36.1634 36.987 34.0237 39.0993 30.3607 40.1918C24.1914 42.0317 19.5878 43.6418 16.8807 45.6021L16.8734 45.6084L16.8651 45.6136C13.5033 48.0076 10.7651 50.6167 8.86428 52.6331C8.7415 52.7633 8.62314 52.892 8.50762 53.0168C10.127 53.2714 11.8715 53.4396 13.2495 53.3286L17.8109 52.9616L15.524 56.9244L15.5229 56.9265C15.5221 56.9279 15.5204 56.9299 15.5187 56.9328C15.515 56.9392 15.5097 56.9497 15.5021 56.963C15.4868 56.9896 15.4637 57.0294 15.4343 57.0808C15.3752 57.1842 15.2893 57.3348 15.185 57.5199C15.0171 57.8182 14.8038 58.2063 14.5718 58.6316C16.0236 58.7282 17.5095 58.8967 18.6452 59.1405L21.1773 59.6838L19.4388 65.5916C21.2684 66.1627 23.2117 66.1122 25.1787 65.748L28.715 65.0931L27.9663 68.6107C27.1955 72.2332 29.2104 75.3721 32.875 78.0339C35.7039 80.0887 39.1305 81.5389 41.7393 82.3305C41.7972 82.1699 41.8586 82.0032 41.9197 81.8309C42.4349 80.3777 43.0173 78.6242 43.362 77.2455L43.364 77.2372L43.3661 77.2278C43.748 75.748 44.0276 73.7546 44.2119 72.0563C44.3023 71.2227 44.367 70.4883 44.409 69.9632C44.4299 69.7012 44.445 69.4922 44.4549 69.35C44.4598 69.279 44.464 69.2242 44.4663 69.1884C44.4675 69.1706 44.4679 69.1571 44.4684 69.1488C44.4687 69.1449 44.4694 69.1421 44.4695 69.1404V69.1383L44.7312 64.8574L48.2457 67.3175C48.736 67.6607 49.2985 68.0451 49.8725 68.4344L49.6222 60.4201L53.8614 64.4465L52.2064 66.1891C53.8613 64.4471 53.8626 64.4477 53.8635 64.4486L53.8708 64.4559C53.8751 64.46 53.8812 64.4655 53.8875 64.4716C53.9 64.4836 53.9163 64.4997 53.9365 64.5195C53.9774 64.5596 54.0343 64.6154 54.1044 64.6864C54.2446 64.8283 54.4402 65.0313 54.679 65.2912C55.1566 65.811 55.8094 66.5626 56.5374 67.5136C57.9861 69.406 59.7704 72.1397 61.0373 75.4549C62.3069 78.7772 63.0799 82.7463 62.4108 87.0473C61.7427 91.3415 59.6628 95.7891 55.5237 100.115C54.8387 100.981 54.3652 101.711 54.0377 102.294L57.9108 103.603C58.5935 102.767 59.5938 101.702 60.9664 100.614C66.0541 96.5766 68.4325 93.6029 69.7994 90.5857C71.2155 87.4599 71.6476 84.1209 72.4712 78.8494C72.6386 77.7679 72.633 74.8188 72.5546 71.7955C72.48 68.9172 72.353 66.3191 72.3388 65.9754L72.3096 65.4873C72.1284 63.069 71.4256 60.9319 70.7307 59.3522C70.3627 58.5158 70.0045 57.8526 69.7441 57.4072C69.6143 57.1851 69.5099 57.0182 69.4417 56.9129C69.4076 56.8603 69.3819 56.8234 69.3677 56.8024C69.3639 56.7969 69.3615 56.7921 69.3593 56.7888L69.3583 56.7878L69.1945 56.5552L64.6519 45.1266L67.672 44.6948C68.5584 44.5682 69.3782 44.4635 70.1529 44.3496C68.8586 42.8877 67.4803 41.3375 66.8867 40.6944L66.3893 40.1553L66.2777 39.4295C66.1363 38.5103 66.116 36.6101 66.116 35.1798C66.116 35.0285 66.1176 34.879 66.1181 34.7324C65.7582 34.7735 65.3291 34.8208 64.9251 34.8367C64.4651 34.8549 63.7526 34.8519 63.0459 34.6021L61.444 34.0358V32.337C61.444 31.0819 60.921 29.6094 60.1947 28.224C59.9122 27.685 59.6201 27.2 59.3562 26.789C58.9037 26.9036 58.3976 27.0394 57.8889 27.1832C56.5822 27.5525 55.4235 27.9186 55.1494 28.0237L53.85 28.5222L52.7716 27.6431C52.2128 27.1877 51.159 26.5772 50.078 26.058C50.0115 26.1507 49.9476 26.2449 49.8809 26.3354ZM4.04524 54.5488L3.42578 56.8702L0 55.9546L2.11908 53.1117L4.04524 54.5488Z" fill="#83848D"/>
<path d="M64.5943 64.9072C66.8262 70.8233 71.856 76.7607 77.7293 80.178L78.2633 80.4983C83.9231 83.4884 90.2236 84.0223 96.4173 80.2847C98.4463 79.1101 101.009 79.7508 102.291 81.673C103.465 83.702 102.825 86.2649 100.902 87.5464C91.2915 93.3129 81.4669 92.1383 73.5646 87.5464C65.769 83.168 59.6821 75.5861 56.692 68.0041L56.0513 66.2955C59.0627 65.6547 61.3266 64.747 63.9536 63.0918C63.9536 63.0918 64.4235 64.4587 64.5943 64.9072Z" fill="white"/>
<path d="M65.7207 62.4836L65.7217 62.4846C65.7219 62.4852 65.7213 62.4866 65.7217 62.4878C65.7226 62.4903 65.7242 62.4943 65.7259 62.4992C65.7293 62.5091 65.7351 62.5234 65.7415 62.542C65.7545 62.5797 65.7726 62.6347 65.7958 62.7016C65.8421 62.8355 65.9054 63.019 65.9741 63.2157L66.3412 64.2419L66.3433 64.2471C68.4179 69.7464 73.1533 75.3532 78.6688 78.5624L78.6802 78.5686L78.6907 78.5749L79.1725 78.8648C84.3514 81.5891 89.93 82.0162 95.4515 78.6844L95.4807 78.6677C98.2932 77.0394 101.803 77.8581 103.67 80.3863L103.845 80.6366L103.879 80.6856L103.908 80.7367C105.589 83.6399 104.662 87.2863 101.939 89.1015L101.903 89.1254L101.864 89.1484C91.5766 95.3208 81.0166 94.0379 72.6254 89.1619C64.4332 84.5522 58.0831 76.6262 54.9532 68.6896L54.9427 68.6604L53.5391 64.9187L55.6623 64.4671C58.4623 63.8714 60.52 63.0461 62.9571 61.5106L64.9542 60.2529L65.7207 62.4836ZM62.9488 65.8301C61.5123 66.5834 60.0982 67.1479 58.5437 67.5978C61.4295 74.7236 67.1882 81.8213 74.4796 85.9166L74.4921 85.9239L74.5036 85.9301C81.9033 90.23 90.9724 91.2999 99.8909 85.9729C100.976 85.231 101.324 83.7998 100.7 82.6618C99.9424 81.5791 98.4913 81.243 97.3536 81.9016C90.5098 86.0178 83.5119 85.3849 77.3902 82.1508L77.3454 82.1268L77.3016 82.1008L76.7676 81.7806C70.6327 78.2038 65.3817 72.065 62.9488 65.8301Z" fill="#83848D"/>
<path d="M39.0727 41.2215V44.9591C38.0716 44.9591 36.8815 44.9087 36.1381 44.9821L36.137 44.981C35.3179 45.0673 34.5428 45.6806 33.8657 46.6287C33.5845 47.0224 33.3633 47.4169 33.2035 47.7362L36.6866 56.0968H39.0727V59.8344H34.1952L29.1655 47.7623L29.4116 47.0792L31.1699 47.7143C29.4121 47.0799 29.4125 47.0788 29.4127 47.0782C29.413 47.0773 29.4134 47.075 29.4137 47.074C29.4144 47.0721 29.416 47.0702 29.4169 47.0678C29.4187 47.0627 29.4204 47.0562 29.4231 47.049C29.4284 47.0347 29.4354 47.0159 29.444 46.9937C29.4611 46.9494 29.4848 46.8894 29.5149 46.8164C29.5752 46.6705 29.6631 46.4704 29.7777 46.2324C30.0051 45.7603 30.3505 45.1191 30.8237 44.4565C31.7253 43.1939 33.3399 41.5105 35.7647 41.2632L35.7699 41.2622C36.7565 41.1648 38.3652 41.2215 39.0727 41.2215ZM32.925 48.3547L32.9271 48.3505L32.9261 48.3484C32.925 48.3512 32.9254 48.3537 32.925 48.3547Z" fill="#83848D"/>
<path d="M58.4007 50.4908C56.9057 51.2384 56.4785 51.8791 56.4785 52.3062C56.4785 52.8402 57.76 54.6556 58.9346 54.7624C59.789 54.7624 61.6044 54.8692 61.9247 54.5488C62.3519 54.2284 62.5655 50.5976 62.4587 50.384C62.2451 50.1705 59.789 49.8501 58.4007 50.4908Z" fill="#83848D"/>
<path d="M483.819 89.8247V42.8896H493.584V63.1757H511.854V42.8896H521.619V89.8247H511.854V71.6807H493.584V89.8247H483.819Z" fill="white"/>
<path d="M456.24 89.8247V51.3947H444.333V42.8896H477.723V51.3947H466.005V89.8247H456.24Z" fill="white"/>
<path d="M419.597 90.5807C415.901 90.5807 412.604 89.8037 409.706 88.2497C406.808 86.6957 404.519 84.5747 402.839 81.8867C401.201 79.1567 400.382 76.0697 400.382 72.6257V42.8896H410.147V71.9957C410.147 73.8437 410.546 75.5237 411.344 77.0357C412.184 78.5057 413.318 79.6607 414.746 80.5007C416.174 81.3407 417.791 81.7607 419.597 81.7607C421.445 81.7607 423.062 81.3407 424.448 80.5007C425.876 79.6607 426.989 78.5057 427.787 77.0357C428.627 75.5237 429.047 73.8437 429.047 71.9957V42.8896H438.812V72.6257C438.812 76.0697 437.972 79.1567 436.292 81.8867C434.654 84.5747 432.386 86.6957 429.488 88.2497C426.59 89.8037 423.293 90.5807 419.597 90.5807Z" fill="white"/>
<path d="M367.878 90.5808C364.35 90.5808 361.074 89.9718 358.05 88.7538C355.026 87.5358 352.38 85.8348 350.112 83.6508C347.886 81.4248 346.143 78.8418 344.883 75.9018C343.623 72.9618 342.993 69.7698 342.993 66.3258C342.993 62.8818 343.602 59.6898 344.82 56.7498C346.08 53.8098 347.823 51.2478 350.049 49.0638C352.317 46.8798 354.963 45.1788 357.987 43.9608C361.011 42.7428 364.308 42.1338 367.878 42.1338C371.448 42.1338 374.745 42.7428 377.769 43.9608C380.793 45.1788 383.418 46.8798 385.644 49.0638C387.912 51.2478 389.655 53.8098 390.873 56.7498C392.133 59.6898 392.763 62.8818 392.763 66.3258C392.763 69.7698 392.133 72.9618 390.873 75.9018C389.613 78.8418 387.849 81.4248 385.581 83.6508C383.355 85.8348 380.73 87.5358 377.706 88.7538C374.682 89.9718 371.406 90.5808 367.878 90.5808ZM367.878 81.7608C370.02 81.7608 371.994 81.3828 373.8 80.6268C375.648 79.8708 377.265 78.8208 378.651 77.4768C380.037 76.0908 381.108 74.4528 381.864 72.5628C382.62 70.6728 382.998 68.5938 382.998 66.3258C382.998 64.0578 382.62 61.9998 381.864 60.1518C381.108 58.2618 380.037 56.6238 378.651 55.2378C377.265 53.8518 375.648 52.8018 373.8 52.0878C371.994 51.3318 370.02 50.9538 367.878 50.9538C365.736 50.9538 363.741 51.3318 361.893 52.0878C360.087 52.8018 358.491 53.8518 357.105 55.2378C355.719 56.6238 354.648 58.2618 353.892 60.1518C353.136 61.9998 352.758 64.0578 352.758 66.3258C352.758 68.5938 353.136 70.6728 353.892 72.5628C354.648 74.4528 355.719 76.0908 357.105 77.4768C358.491 78.8208 360.087 79.8708 361.893 80.6268C363.741 81.3828 365.736 81.7608 367.878 81.7608Z" fill="white"/>
<path d="M285.656 89.8247V42.8896H295.106L312.683 66.1996H308.273L325.346 42.8896H334.796V89.8247H325.031V53.6627L328.937 54.5447L310.856 77.8547H309.596L292.145 54.5447L295.421 53.6627V89.8247H285.656Z" fill="white"/>
<path d="M226.934 89.8247V42.8896H236.384L253.961 66.1996H249.551L266.624 42.8896H276.074V89.8247H266.309V53.6627L270.215 54.5447L252.134 77.8547H250.874L233.423 54.5447L236.699 53.6627V89.8247H226.934Z" fill="white"/>
<path d="M176.066 89.8247L191.942 42.8896H204.92L220.796 89.8247H210.149L206.999 80.2487H189.8L186.65 89.8247H176.066ZM192.509 71.7437H204.29L197.108 49.5676H199.754L192.509 71.7437Z" fill="white"/>
<path d="M120.808 89.8247V42.8896H130.258L147.835 66.1996H143.425L160.498 42.8896H169.948V89.8247H160.183V53.6627L164.089 54.5447L146.008 77.8547H144.748L127.297 54.5447L130.573 53.6627V89.8247H120.808Z" fill="white"/>
</svg>