<svg width="105" height="105" viewBox="0 0 105 105" fill="none" xmlns="http://www.w3.org/2000/svg">
<path d="M61.1959 38.094C63.5453 43.9674 68.4575 49.9475 74.3309 53.3648L74.8648 53.6851C80.5246 56.6752 86.8251 57.2092 93.0189 53.4716C95.0479 52.2969 97.6108 52.9376 98.8922 54.8598C100.067 56.8888 99.4262 59.4517 97.504 60.7332C87.893 66.4998 78.0685 65.3251 70.1661 60.7332C62.3706 56.3548 56.2836 48.7729 53.2936 41.1909L52.6528 39.6958L54.1479 39.0551L59.1669 37.1329L60.662 36.4922L61.3027 37.9872L61.1959 38.094Z" fill="white"/>
<path d="M63.5181 38.4139L63.4117 38.5192C65.7663 43.6591 70.1477 48.7685 75.27 51.7489L75.2815 51.7552L75.2919 51.7625L75.7727 52.0503C80.952 54.7753 86.5307 55.2031 92.0527 51.8709L92.0819 51.8542C94.8944 50.226 98.4046 51.0447 100.271 53.5729L100.447 53.8232L100.48 53.8722L100.509 53.9233C102.19 56.8265 101.263 60.4728 98.5403 62.288L98.5038 62.312L98.4652 62.3349C88.1779 68.5074 77.6179 67.2245 69.2267 62.3485C61.0521 57.7486 54.7123 49.8467 51.5753 41.9273L50.1987 38.7143L53.4118 37.3366L53.4451 37.3231L53.4796 37.3095L58.455 35.4042L61.643 34.0381L63.5181 38.4139ZM55.1064 40.6884C57.9792 47.8464 63.7567 54.9895 71.0809 59.1031L71.0934 59.1104L71.1049 59.1167C78.5044 63.4164 87.5728 64.486 96.4911 59.1594C97.5772 58.4172 97.9261 56.9848 97.3004 55.8463C96.5423 54.7652 95.0919 54.43 93.9549 55.0881C87.111 59.2044 80.1132 58.5715 73.9915 55.3374L73.9466 55.3134L73.9029 55.2873L73.3689 54.9672C67.1939 51.3667 62.0659 45.1558 59.5427 38.9885L55.1064 40.6884Z" fill="#83848D"/>
<path d="M51.0505 91.5944C51.0505 91.5944 51.136 89.7363 53.827 86.3617C69.3968 70.2153 52.332 54.0048 52.332 54.0048L52.5456 60.8393C52.5456 60.8393 49.1284 58.5968 46.9926 57.1017C46.9926 57.1017 46.6722 62.3343 45.8179 65.6448C45.0704 68.6349 43.3618 73.0132 43.3618 73.0132C37.5952 71.8385 23.6059 65.9651 25.7417 55.927C22.8584 56.461 19.6547 56.461 16.6647 54.7524L18.2665 49.3062C16.2268 48.8683 12.7242 48.6868 10.8874 48.7722C11.368 47.3519 13.5678 43.5396 13.5678 43.5396C9.72341 43.8493 4.17041 42.3649 4.17041 42.3649C4.17041 42.3649 8.54874 36.4915 15.5968 31.4725C18.6936 29.2299 23.7127 27.5213 29.7996 25.7059C35.8866 23.8905 36.5273 18.8714 36.5273 18.8714L41.4396 13.9592C41.4396 13.9592 43.9171 12.7418 46.7576 14.2582C47.2596 13.8951 48.9361 11.6632 49.2351 10.8623C50.9117 11.4496 53.2611 12.6564 54.4144 13.5961C55.1939 13.2971 59.4441 12.0263 60.5547 11.9302C61.0459 12.6136 63.972 16.4901 63.972 20.1529C65.0292 20.5267 67.2717 19.7364 68.6706 20.1529C68.6706 20.1529 68.5639 25.4923 68.7774 26.8806C70.0589 28.2688 74.7576 33.6082 74.7576 33.6082C72.6218 34.3558 70.3793 34.5693 68.1367 34.8897L71.4471 43.2192C71.4471 43.2192 74.5974 47.683 74.8644 53.6845C74.8857 54.2184 75.3876 64.342 74.9712 67.033C73.3693 77.2847 73.081 81.9834 62.5837 90.3129C60.0101 92.3526 58.9529 94.2641 58.9529 94.2641L51.0505 91.5944Z" fill="white"/>
<path d="M34.144 18.5578L34.2473 17.7527L34.8281 17.1729L39.74 12.26L40.0226 11.9784L40.3803 11.8032L41.4398 13.9599C40.4187 11.8817 40.3817 11.8054 40.3813 11.8022L40.3834 11.8012C40.3848 11.8005 40.3871 11.7998 40.3886 11.7991C40.3916 11.7976 40.3948 11.7954 40.398 11.7939C40.4046 11.7907 40.4121 11.7871 40.4199 11.7834C40.4357 11.776 40.4543 11.7679 40.4752 11.7584C40.5175 11.7392 40.5701 11.7154 40.6327 11.6896C40.7574 11.638 40.9227 11.5749 41.1238 11.5092C41.5247 11.3781 42.0805 11.2337 42.7517 11.1546C43.669 11.0465 44.8116 11.0616 46.0566 11.4049C46.0834 11.3691 46.112 11.334 46.1389 11.2975C46.3729 10.9805 46.5923 10.6641 46.7615 10.3964C46.9588 10.0843 47.0021 9.97266 46.9837 10.022L47.8075 7.81641L50.0298 8.59542C51.4625 9.09737 53.3619 10.0073 54.8113 10.9356C55.3803 10.7591 56.0525 10.5606 56.7072 10.3756C57.3731 10.1874 58.0645 10.0011 58.6709 9.85415C59.2247 9.72 59.8647 9.57893 60.3479 9.53712L61.7088 9.41928L62.5055 10.5278C62.7391 10.8528 63.6925 12.1242 64.5756 13.8087C65.1396 14.8844 65.7355 16.2442 66.0804 17.7319C66.8488 17.6434 68.1799 17.5006 69.356 17.8508L71.1091 18.3722L71.0726 20.2014V20.2149C71.0724 20.2244 71.0719 20.2388 71.0715 20.2577C71.0708 20.2958 71.0696 20.3527 71.0684 20.4256C71.066 20.5715 71.0634 20.7824 71.0601 21.0398C71.0535 21.5554 71.0465 22.2554 71.0465 22.9962C71.0465 24.1174 71.0644 25.1774 71.0997 25.8682C71.8693 26.7215 73.0155 28.0077 74.0468 29.1731C74.7155 29.9286 75.3439 30.6409 75.8051 31.1639C76.0356 31.4253 76.2245 31.6396 76.3557 31.7885C76.4213 31.863 76.4731 31.921 76.508 31.9606C76.5253 31.9803 76.5386 31.9953 76.5476 32.0055C76.5521 32.0105 76.5557 32.0143 76.558 32.0169C76.5591 32.0181 76.5595 32.0194 76.5601 32.0201L76.5611 32.0211L78.917 34.6981L75.5517 35.8765C74.2102 36.346 72.8219 36.6285 71.497 36.8401L73.5859 42.0972C73.5901 42.1037 73.5951 42.1102 73.5994 42.117C73.7045 42.2793 73.8481 42.5081 74.0176 42.798C74.3562 43.377 74.8016 44.2047 75.2544 45.2341C76.0987 47.1532 76.9949 49.8341 77.2275 52.9491L77.2651 53.578V53.5884C77.2746 53.8273 77.4074 56.5315 77.4841 59.4878C77.5578 62.3326 77.5945 65.7915 77.3454 67.401V67.4042C76.5676 72.3821 76.0537 76.5176 74.3013 80.3856C72.4994 84.3628 69.4856 87.9033 64.0771 92.1949L64.0761 92.196C62.95 93.0884 62.1681 93.9429 61.6796 94.5539C61.4355 94.8591 61.2656 95.103 61.1634 95.2578C61.1124 95.335 61.0779 95.39 61.0601 95.4194C61.0581 95.4227 61.0554 95.4252 61.0539 95.4278L60.084 97.1829L48.5667 93.292L48.6501 91.4848L51.0508 91.5943C48.6506 91.4839 48.6501 91.4822 48.6501 91.4806V91.4775C48.6502 91.4754 48.6511 91.4733 48.6512 91.4712C48.6514 91.4668 48.6509 91.4623 48.6512 91.4576C48.6517 91.4482 48.6526 91.4377 48.6533 91.4274C48.6546 91.4069 48.6564 91.3847 48.6585 91.3607C48.6628 91.3121 48.6689 91.2555 48.6773 91.1928C48.6939 91.0672 48.7199 90.9139 48.7596 90.7339C48.8392 90.3731 48.9745 89.9081 49.2018 89.3448C49.6569 88.2173 50.4767 86.7095 51.9487 84.8637L52.0186 84.7761L52.0968 84.6947C55.6804 80.9783 57.2813 77.3796 57.7876 74.1254C58.2978 70.8461 57.7241 67.7353 56.6739 64.9868C56.1812 63.6975 55.5873 62.5021 54.9667 61.4255L55.0919 65.3842L51.227 62.8479L51.2239 62.8469C51.2222 62.8457 51.2199 62.8438 51.2166 62.8417C51.2099 62.8373 51.2003 62.8303 51.1874 62.8219C51.1615 62.8048 51.1229 62.7801 51.0737 62.7478C50.9752 62.683 50.8325 62.5879 50.6545 62.4704C50.2986 62.2354 49.8013 61.9068 49.2373 61.5308C49.1586 61.4784 49.0786 61.4244 48.9974 61.3702C48.8058 62.9348 48.5325 64.7414 48.1444 66.2455C47.7412 67.8533 47.0978 69.7754 46.5738 71.2533C46.3074 72.0048 46.0656 72.6604 45.8897 73.1284C45.8018 73.3623 45.73 73.5499 45.6801 73.6801C45.6551 73.7452 45.6352 73.7964 45.6217 73.8313C45.6151 73.8484 45.6097 73.8616 45.606 73.8709C45.6042 73.8756 45.6029 73.8798 45.6019 73.8824C45.6014 73.8837 45.6011 73.8847 45.6008 73.8855L45.5998 73.8866L44.8646 75.772L42.8821 75.3674C39.7255 74.7244 34.4529 72.8447 30.1759 69.7381C26.676 67.1959 23.4007 63.4671 23.1346 58.6317C20.6883 58.7153 18.0373 58.3044 15.4727 56.839L13.824 55.8962L15.1724 51.3046C13.6551 51.173 12.0291 51.1252 10.9989 51.1731L7.48339 51.3358L8.61072 48.0029C8.81082 47.4115 9.19661 46.6009 9.5983 45.8108C8.66883 45.7075 7.78189 45.5722 7.00681 45.4343C6.02328 45.2594 5.16719 45.0741 4.5561 44.9327C4.25015 44.8619 4.00352 44.8018 3.83131 44.7585C3.74529 44.737 3.67752 44.7198 3.63004 44.7074C3.6063 44.7013 3.58717 44.6964 3.57373 44.6928C3.56727 44.6911 3.56205 44.6897 3.55808 44.6887C3.55612 44.6881 3.5542 44.688 3.55287 44.6876L3.55078 44.6866L4.17024 42.3652C2.24385 40.9292 2.2438 40.9285 2.24408 40.9281L2.24721 40.925C2.24833 40.9235 2.24984 40.9218 2.25138 40.9198C2.25489 40.9151 2.25929 40.9085 2.26494 40.901C2.27624 40.886 2.29211 40.8654 2.31187 40.8395C2.35145 40.7877 2.40797 40.7145 2.48081 40.6215C2.62676 40.4352 2.83904 40.1693 3.11383 39.8373C3.66307 39.1736 4.46412 38.2429 5.49154 37.153C7.54187 34.978 10.5164 32.1401 14.2025 29.5151C17.6897 26.9962 23.1177 25.1921 29.1133 23.404C31.5368 22.6811 32.7615 21.3763 33.4057 20.3401C33.7396 19.8029 33.9316 19.3119 34.0376 18.9708C34.0903 18.8014 34.1204 18.6727 34.1357 18.5995C34.1433 18.5632 34.1472 18.541 34.1482 18.5349C34.1487 18.5319 34.1489 18.5329 34.1482 18.538C34.1478 18.5407 34.1468 18.5446 34.1461 18.5495C34.1458 18.5519 34.1444 18.5548 34.144 18.5578ZM61.0549 95.4288L61.0539 95.4299L61.0528 95.432C61.0522 95.4331 61.0513 95.4341 61.0507 95.4351C61.0495 95.4374 61.0484 95.44 61.0476 95.4414C61.0469 95.4426 61.0458 95.443 61.0455 95.4434C61.0463 95.4421 61.0486 95.4365 61.0539 95.4278L61.0549 95.4288ZM50.0059 14.1518C49.7207 14.5381 49.4196 14.9216 49.1434 15.2457C48.9273 15.4994 48.5571 15.9223 48.1663 16.2051L46.9503 17.0853L45.6259 16.3783C44.7252 15.8975 43.9094 15.8565 43.3138 15.9267C43.092 15.9529 42.904 15.9972 42.759 16.0372L38.7169 20.0783C38.6897 20.178 38.6612 20.285 38.6262 20.3974C38.422 21.0541 38.0734 21.9319 37.4864 22.8763C36.2884 24.8034 34.1487 26.9157 30.4857 28.0082C24.3164 29.8482 19.7128 31.4582 17.0057 33.4185L16.9984 33.4248L16.9901 33.43C13.6283 35.824 10.8901 38.4331 8.98928 40.4495C8.8665 40.5797 8.74814 40.7084 8.63262 40.8332C10.252 41.0879 11.9965 41.256 13.3745 41.145L17.9359 40.778L15.649 44.7408L15.6479 44.7429C15.6471 44.7443 15.6454 44.7463 15.6437 44.7492C15.64 44.7556 15.6347 44.7661 15.6271 44.7794C15.6118 44.806 15.5887 44.8458 15.5593 44.8972C15.5002 45.0006 15.4143 45.1512 15.31 45.3363C15.1421 45.6346 14.9288 46.0227 14.6968 46.448C16.1486 46.5447 17.6345 46.7131 18.7702 46.9569L21.3023 47.5002L19.5638 53.408C21.3934 53.9791 23.3367 53.9287 25.3037 53.5644L28.84 52.9095L28.0913 56.4271C27.3205 60.0497 29.3354 63.1885 33 65.8503C35.8289 67.9051 39.2555 69.3553 41.8643 70.1469C41.9222 69.9863 41.9836 69.8196 42.0447 69.6473C42.5599 68.1941 43.1423 66.4406 43.487 65.0619L43.489 65.0536L43.4911 65.0442C43.873 63.5644 44.1526 61.571 44.3369 59.8727C44.4273 59.0391 44.492 58.3047 44.534 57.7796C44.5549 57.5176 44.57 57.3086 44.5799 57.1664C44.5848 57.0954 44.589 57.0406 44.5913 57.0048C44.5925 56.9871 44.5929 56.9735 44.5934 56.9652C44.5937 56.9613 44.5944 56.9585 44.5945 56.9568V56.9547L44.8562 52.6738L48.3707 55.1339C48.861 55.4771 49.4235 55.8615 49.9975 56.2508L49.7472 48.2365L53.9864 52.2629L52.3314 54.0055C53.9863 52.2635 53.9876 52.2641 53.9885 52.265L53.9958 52.2723C54.0001 52.2764 54.0062 52.2819 54.0125 52.288C54.025 52.3 54.0413 52.3162 54.0615 52.3359C54.1024 52.376 54.1593 52.4318 54.2294 52.5028C54.3696 52.6447 54.5652 52.8477 54.804 53.1076C55.2816 53.6274 55.9344 54.379 56.6624 55.33C58.1111 57.2224 59.8954 59.9561 61.1623 63.2713C62.4319 66.5936 63.2049 70.5627 62.5358 74.8637C61.8677 79.1579 59.7878 83.6055 55.6487 87.9317C54.9637 88.7978 54.4902 89.527 54.1627 90.1103L58.0358 91.4191C58.7185 90.583 59.7188 89.5181 61.0914 88.4302C66.1791 84.393 68.5575 81.4193 69.9244 78.4021C71.3405 75.2763 71.7726 71.9373 72.5962 66.6658C72.7636 65.5843 72.758 62.6353 72.6796 59.6119C72.605 56.7336 72.478 54.1355 72.4638 53.7918L72.4346 53.3037C72.2534 50.8854 71.5506 48.7483 70.8557 47.1686C70.4877 46.3322 70.1295 45.669 69.8691 45.2237C69.7393 45.0015 69.6349 44.8346 69.5667 44.7293C69.5326 44.6767 69.5069 44.6398 69.4927 44.6188C69.4889 44.6133 69.4865 44.6085 69.4843 44.6052L69.4833 44.6042L69.3195 44.3716L64.7769 32.943L67.797 32.5112C68.6834 32.3846 69.5032 32.2799 70.2779 32.1661C68.9836 30.7041 67.6053 29.1539 67.0117 28.5108L66.5143 27.9717L66.4027 27.2459C66.2613 26.3267 66.241 24.4265 66.241 22.9962C66.241 22.8449 66.2426 22.6954 66.2431 22.5488C65.8832 22.5899 65.4541 22.6372 65.0501 22.6531C64.5901 22.6713 63.8776 22.6683 63.1709 22.4185L61.569 21.8522V20.1534C61.569 18.8983 61.046 17.4258 60.3197 16.0404C60.0372 15.5014 59.7451 15.0164 59.4812 14.6054C59.0287 14.72 58.5226 14.8558 58.0139 14.9996C56.7072 15.3689 55.5485 15.735 55.2744 15.8401L53.975 16.3386L52.8966 15.4595C52.3378 15.0042 51.284 14.3936 50.203 13.8744C50.1365 13.9671 50.0726 14.0613 50.0059 14.1518ZM4.17024 42.3652L3.55078 44.6866L0.125 43.771L2.24408 40.9281L4.17024 42.3652Z" fill="#83848D"/>
<path d="M64.7193 52.7236C66.9512 58.6397 71.981 64.5771 77.8543 67.9944L78.3883 68.3147C84.0481 71.3048 90.3486 71.8387 96.5423 68.1011C98.5713 66.9265 101.134 67.5672 102.416 69.4894C103.59 71.5184 102.95 74.0813 101.027 75.3628C91.4165 81.1293 81.5919 79.9547 73.6896 75.3628C65.894 70.9844 59.8071 63.4025 56.817 55.8205L56.1763 54.1119C59.1877 53.4711 61.4516 52.5634 64.0786 50.9082C64.0786 50.9082 64.5485 52.2751 64.7193 52.7236Z" fill="white"/>
<path d="M65.8457 50.3L65.8467 50.301C65.8469 50.3016 65.8463 50.303 65.8467 50.3042C65.8476 50.3067 65.8492 50.3107 65.8509 50.3156C65.8543 50.3255 65.8601 50.3398 65.8665 50.3584C65.8795 50.3961 65.8976 50.4511 65.9208 50.518C65.9671 50.6519 66.0304 50.8354 66.0991 51.0321L66.4662 52.0583L66.4683 52.0635C68.5429 57.5628 73.2783 63.1696 78.7938 66.3788L78.8052 66.385L78.8157 66.3913L79.2975 66.6812C84.4764 69.4056 90.055 69.8326 95.5765 66.5008L95.6057 66.4841C98.4182 64.8558 101.928 65.6745 103.795 68.2027L103.97 68.453L104.004 68.502L104.033 68.5531C105.714 71.4563 104.787 75.1027 102.064 76.9179L102.028 76.9419L101.989 76.9648C91.7016 83.1372 81.1416 81.8543 72.7504 76.9784C64.5582 72.3686 58.2081 64.4426 55.0782 56.506L55.0677 56.4768L53.6641 52.7351L55.7873 52.2835C58.5873 51.6878 60.645 50.8625 63.0821 49.327L65.0792 48.0693L65.8457 50.3ZM63.0738 53.6465C61.6373 54.3998 60.2232 54.9643 58.6687 55.4142C61.5545 62.54 67.3132 69.6377 74.6046 73.733L74.6171 73.7403L74.6286 73.7465C82.0283 78.0464 91.0974 79.1163 100.016 73.7893C101.101 73.0474 101.449 71.6162 100.825 70.4782C100.067 69.3955 98.6163 69.0594 97.4786 69.718C90.6348 73.8342 83.6369 73.2013 77.5152 69.9672L77.4704 69.9432L77.4266 69.9172L76.8926 69.597C70.7577 66.0202 65.5067 59.8814 63.0738 53.6465Z" fill="#83848D"/>
<path d="M39.1977 29.0379V32.7755C38.1966 32.7755 37.0065 32.7251 36.2631 32.7985L36.262 32.7974C35.4429 32.8837 34.6678 33.497 33.9907 34.4451C33.7095 34.8388 33.4883 35.2334 33.3285 35.5526L36.8116 43.9132H39.1977V47.6508H34.3202L29.2905 35.5787L29.5366 34.8956L31.2949 35.5307C29.5371 34.8963 29.5375 34.8952 29.5377 34.8946C29.538 34.8937 29.5384 34.8914 29.5387 34.8904C29.5394 34.8885 29.541 34.8866 29.5419 34.8842C29.5437 34.8791 29.5454 34.8726 29.5481 34.8654C29.5534 34.8511 29.5604 34.8323 29.569 34.8101C29.5861 34.7658 29.6098 34.7058 29.6399 34.6328C29.7002 34.4869 29.7881 34.2868 29.9027 34.0488C30.1301 33.5767 30.4755 32.9355 30.9487 32.2729C31.8503 31.0103 33.4649 29.3269 35.8897 29.0796L35.8949 29.0786C36.8815 28.9812 38.4902 29.0379 39.1977 29.0379ZM33.05 36.1711L33.0521 36.1669L33.0511 36.1648C33.05 36.1676 33.0504 36.1701 33.05 36.1711Z" fill="#83848D"/>
<path d="M58.5257 38.3072C57.0307 39.0548 56.6035 39.6955 56.6035 40.1226C56.6035 40.6566 57.885 42.472 59.0596 42.5788C59.914 42.5788 61.7294 42.6856 62.0497 42.3652C62.4769 42.0448 62.6905 38.414 62.5837 38.2005C62.3701 37.9869 59.914 37.6665 58.5257 38.3072Z" fill="#83848D"/>
</svg>