<svg width="105" height="105" viewBox="0 0 105 105" fill="none" xmlns="http://www.w3.org/2000/svg">
<path d="M96.6542 59.1044C89.2678 63.5255 82.438 63.1937 77.5352 61.8234C77.4817 59.5968 77.4389 57.959 77.4067 56.7707C79.6334 57.5522 81.86 57.9376 84.0545 57.9376C87.5015 57.9376 90.8628 56.9848 94.0529 55.0579C95.1983 54.3942 96.6542 54.7261 97.4142 55.818C98.0458 56.9634 97.6818 58.4193 96.6542 59.1044Z" fill="white"/>
<path d="M70.8242 75.782C69.5289 80.2031 67.1953 83.5537 61.0078 88.478C59.6376 89.5592 58.6313 90.6297 57.9462 91.4647L53.9961 90.1266C54.5527 89.2059 55.3342 88.114 56.3512 87.1078C62.3245 81.2094 63.3843 74.3796 62.1747 68.1387C64.7117 71.1253 67.6556 73.7373 70.8242 75.782Z" fill="#9F6C45"/>
<path d="M54.1239 52.3491L50.6127 48.4739L49.6279 56.1386L44.8642 52.1564L44.5751 56.9201C44.5751 56.9201 44.254 61.9835 43.4618 65.0451C43.0658 66.6294 42.3699 68.6633 41.8347 70.1513C37.5099 68.8453 31.6971 65.9015 29.1815 62.0691C27.9825 60.2386 27.6079 58.3866 28.0361 56.3955L28.7854 52.8736L25.2421 53.5266C23.0047 53.9334 21.1421 53.8906 19.4828 53.3767L21.2277 47.4355L18.68 46.9003C17.5452 46.6647 16.0466 46.4828 14.5907 46.3864C14.9118 45.8084 15.2437 45.2196 15.5541 44.6843L17.8878 40.6914L13.274 41.0768C11.8288 41.1945 10.0732 41.0126 8.521 40.7663C10.4265 38.711 13.3168 35.8956 16.9244 33.3264C19.6327 31.3674 24.2893 29.7403 30.434 27.9097C36.3431 26.1434 38.1629 21.8508 38.6767 19.956L42.7339 15.9095C43.2584 15.7704 44.3825 15.6205 45.6563 16.2842L47.048 17.0014L48.2683 16.0273C49.0605 15.3957 49.7349 14.6571 50.3237 13.7686C51.3406 14.2717 52.2934 14.8712 52.7537 15.2887L53.8991 16.327L55.3229 15.7168C55.8153 15.5028 57.7636 14.8498 59.5085 14.443C60.397 15.8239 61.596 18.0933 61.596 20.0309V21.8294L63.3087 22.3432C64.2722 22.6322 65.3106 22.5145 66.3061 22.4074C66.3275 24.0667 66.3489 26.1113 66.4132 26.957L66.4774 27.792L67.0448 28.4129C67.6442 29.0552 69.0359 30.6181 70.3205 32.074C69.8709 32.1382 69.4105 32.2024 68.9502 32.2666L64.8074 32.8554L69.2607 44.042L69.4427 44.4167C69.4427 44.4167 72.2902 49.0948 72.515 53.7193C72.515 53.912 72.6434 58.8362 72.697 61.4696C69.9886 58.6543 67.7727 55.325 66.4988 52.0172L66.4239 51.8459C66.3382 51.6639 66.092 50.9574 65.8993 50.3151L65.1928 48.0243L63.1375 49.2553C60.5041 50.8397 58.4487 51.6747 55.7939 52.242L54.3059 52.5525C54.2417 52.4775 54.1882 52.4133 54.1239 52.3491Z" fill="#9F6C45"/>
<path d="M104.159 68.5462L104.095 68.4499C102.253 65.688 98.5708 64.8209 95.6805 66.4909C90.5207 69.606 85.0184 69.6595 79.4198 66.705L78.8524 66.3731C78.5312 66.1804 78.1994 65.9877 77.8889 65.7843C79.7516 66.2125 81.8176 66.4909 84.0443 66.4909C88.4226 66.4909 93.4111 65.4097 98.6565 62.2731C101.418 60.4319 102.285 56.7494 100.626 53.8805L100.562 53.7841C98.7207 51.0223 95.0382 50.1552 92.1479 51.8251C87.4377 54.6726 82.4278 54.951 77.2574 52.6922C76.7863 47.6288 74.26 43.0899 73.6605 42.0837L71.5409 36.7633C72.8898 36.5492 74.2493 36.2709 75.6088 35.7892L78.9809 34.6116L76.6258 31.9247C76.4545 31.732 72.9112 27.7177 71.1877 25.8015C71.1341 24.2065 71.1234 21.2412 71.1234 20.0315V18.2545L69.4214 17.73C68.3188 17.3874 67.1626 17.4731 66.1135 17.5801C65.1929 13.6193 62.4632 10.2901 62.4311 10.2472L61.564 9.20887L60.2365 9.40156C58.4595 9.65848 56.2436 10.3008 54.777 10.7932C53.364 9.84046 51.4799 8.89843 49.9491 8.41671L47.8724 7.77441L47.016 9.76553C46.7484 10.3971 46.47 10.9002 46.1596 11.3177C43.0873 10.4292 40.6787 11.4997 40.3789 11.6496L40.0043 11.8316L34.791 17.0449L34.2236 17.6336L34.1059 18.4044C34.0844 18.5543 33.4957 21.9691 29.0531 23.2858C22.2448 25.3198 17.3741 27.054 14.1091 29.4197C6.81903 34.6116 2.31226 40.6064 2.11957 40.8633L0 43.7001L3.42557 44.6207C3.59685 44.6635 6.38013 45.4129 9.48455 45.7554C9.05636 46.6118 8.67098 47.4361 8.4997 48.0142L7.47203 51.3327L10.9404 51.1293C11.9253 51.0651 13.5524 51.1293 15.0832 51.2578L13.7344 55.8609L15.383 56.8029C17.6631 58.1089 20.2002 58.7191 23.0584 58.612C23.1761 60.7209 23.8827 62.7655 25.1565 64.7031C29.0745 70.6872 37.8954 74.3697 42.8625 75.3866L44.8429 75.7827L45.5815 73.8987C45.6565 73.7167 47.3585 69.3277 48.14 66.2339C48.4826 64.9065 48.7395 63.3222 48.9322 61.8449L53.2784 65.4953L53.9421 60.3462C54.8306 61.8342 55.7405 63.6005 56.447 65.5381C59.0911 72.689 57.9136 78.7908 52.9572 83.6829C49.7564 86.8623 48.3969 90.5555 48.3434 90.7161L47.5084 93.0283L58.0849 96.6038L59.9689 97.2247L60.9538 95.5119C60.9538 95.5119 61.8851 93.9168 64.0047 92.2469C70.6952 86.9265 73.5428 82.8587 75.1057 78.2234C79.1735 80.1824 83.3592 81.1673 87.5234 81.1673C92.5119 81.1673 97.4789 79.7542 102.189 76.9389C104.951 75.0976 105.818 71.4151 104.159 68.5462ZM84.055 57.9376C87.502 57.9376 90.8633 56.9849 94.0534 55.058C95.1988 54.3943 96.6547 54.7262 97.4147 55.8181C98.0463 56.9635 97.6823 58.4194 96.6547 59.1045C89.2683 63.5256 82.4385 63.1937 77.5357 61.8235C77.4822 59.5969 77.4393 57.959 77.4072 56.7708C79.6338 57.5523 81.8605 57.9376 84.055 57.9376ZM62.1741 68.1394C64.7112 71.1261 67.6551 73.7381 70.8237 75.7827C69.5284 80.2038 67.1947 83.5545 61.0073 88.4787C59.6371 89.5599 58.6308 90.6304 57.9457 91.4654L53.9956 90.1273C54.5522 89.2067 55.3337 88.1148 56.3507 87.1085C62.324 81.2101 63.3838 74.3804 62.1741 68.1394ZM54.306 52.5531C54.2418 52.4781 54.1883 52.4139 54.124 52.3497L50.6128 48.4745L49.628 56.1392L44.8643 52.157L44.5753 56.9207C44.5753 56.9207 44.2541 61.9841 43.4619 65.0457C43.0659 66.63 42.37 68.664 41.8348 70.1519C37.51 68.8459 31.6972 65.9021 29.1816 62.0697C27.9826 60.2392 27.608 58.3872 28.0362 56.3961L28.7855 52.8742L25.2422 53.5272C23.0049 53.934 21.1422 53.8912 19.4829 53.3773L21.2278 47.4361L18.6801 46.9009C17.5454 46.6654 16.0467 46.4834 14.5908 46.387C14.9119 45.809 15.2438 45.2202 15.5542 44.685L17.8879 40.692L13.2741 41.0774C11.8289 41.1951 10.0733 41.0132 8.52111 40.767C10.4266 38.7116 13.3169 35.8962 16.9245 33.327C19.6328 31.368 24.2894 29.7409 30.4341 27.9104C36.3432 26.144 38.163 21.8514 38.6769 19.9566L42.734 15.9101C43.2586 15.771 44.3826 15.6211 45.6565 16.2848L47.0481 17.002L48.2685 16.0279C49.0606 15.3963 49.735 14.6577 50.3238 13.7692C51.3408 14.2723 52.2935 14.8718 52.7538 15.2893L53.8992 16.3276L55.323 15.7175C55.8154 15.5034 57.7637 14.8504 59.5086 14.4436C60.3971 15.8245 61.5961 18.0939 61.5961 20.0315V21.83L63.3089 22.3438C64.2723 22.6328 65.3107 22.5151 66.3062 22.408C66.3276 24.0673 66.3491 26.1119 66.4133 26.9576L66.4775 27.7926L67.0449 28.4135C67.6443 29.0558 69.036 30.6187 70.3206 32.0746C69.871 32.1388 69.4107 32.203 68.9503 32.2673L64.8075 32.856L69.2608 44.0427L69.4428 44.4173C69.4428 44.4173 72.2903 49.0954 72.5151 53.7199C72.5151 53.9126 72.6435 58.8368 72.6971 61.4703C69.9887 58.6549 67.7728 55.3256 66.4989 52.0178L66.424 51.8465C66.3383 51.6646 66.0921 50.958 65.8994 50.3157L65.1929 48.0249L63.1376 49.2559C60.5042 50.8403 58.4488 51.6753 55.794 52.2426L54.306 52.5531ZM100.177 73.7702C90.2638 79.7221 81.3038 77.1637 76.1012 74.5195C75.5767 74.2626 75.095 74.0057 74.6561 73.7488C74.3991 73.6096 74.1422 73.4598 73.896 73.2885C73.1467 72.8603 72.4187 72.3786 71.7015 71.854C66.0386 67.829 61.2963 61.8663 58.6736 55.3685C60.183 54.9188 61.5961 54.3515 63.0841 53.5807C64.9574 58.3444 68.4044 62.9796 72.5686 66.4909C73.2751 67.0903 74.0031 67.647 74.7417 68.1715C75.4696 68.6854 76.1976 69.1564 76.9469 69.5953H76.9576L77.5785 69.97C84.4082 73.5775 91.345 73.4919 97.586 69.7237C98.7207 69.06 100.187 69.3919 100.947 70.4838C101.568 71.6292 101.215 73.0851 100.177 73.7702Z" fill="#311A17"/>
<path d="M100.176 73.7705C90.2635 79.7225 81.3035 77.164 76.1009 74.5199C75.5764 74.2629 75.0947 74.006 74.6558 73.7491C74.3989 73.6099 74.1419 73.4601 73.8957 73.2888C73.1464 72.8606 72.4185 72.3789 71.7012 71.8543C66.0383 67.8293 61.296 61.8667 58.6733 55.3688C60.1827 54.9192 61.5958 54.3518 63.0838 53.5811C64.9571 58.3447 68.4041 62.98 72.5683 66.4912C73.2748 67.0907 74.0028 67.6473 74.7414 68.1718C75.4693 68.6857 76.1973 69.1567 76.9466 69.5956H76.9573L77.5782 69.9703C84.408 73.5778 91.3447 73.4922 97.5857 69.7241C98.7204 69.0604 100.187 69.3922 100.947 70.4841C101.568 71.6295 101.215 73.0854 100.176 73.7705Z" fill="white"/>
<path d="M39.1583 47.5973H34.2661L29.2241 35.5115L29.4596 34.8371C29.5346 34.6123 31.4079 29.4204 35.8612 28.9922H36.0431H39.1476V32.7389H36.1502C34.7157 32.9316 33.7202 34.5694 33.2599 35.4901L36.7497 43.872H39.1369V47.6187L39.1583 47.5973Z" fill="#311A17"/>
<path d="M58.8122 37.984C57.1957 38.4336 56.6177 39.6219 56.6177 40.0501C56.6177 40.4783 57.9023 42.4052 59.0798 42.5122C59.9362 42.5122 61.756 42.5122 62.0772 42.2981C62.5054 41.977 62.7195 38.3373 62.6124 38.1232C62.3983 37.9091 59.8077 37.7057 58.8122 37.984Z" fill="#311A17"/>
</svg>
